<?xml version="1.0" encoding="UTF-8"?>
<svg xmlns="http://www.w3.org/2000/svg" version="1.1" viewBox="200 25 200 200" width="512" height="512" preserveAspectRatio="xMidYMid meet" role="img" aria-label="Argus">
  <title>Argus — Icon</title>
  <desc>Watchful-eye medallion recolored in cerulean-to-violet brand gradient on a deep obsidian background.</desc>
  <defs>
    <radialGradient id="bg" cx="50%" cy="50%" r="75%">
      <stop offset="0%"   stop-color="#0b0c18"/>
      <stop offset="70%"  stop-color="#07070f"/>
      <stop offset="100%" stop-color="#020205"/>
    </radialGradient>
    <!-- Cerulean → violet disc gradient, brighter top-left -->
    <radialGradient id="brandGrad" cx="42%" cy="38%" r="72%">
      <stop offset="0%"   stop-color="#BFE2FF"/>
      <stop offset="28%"  stop-color="#5BA0FF"/>
      <stop offset="60%"  stop-color="#5B5DFF"/>
      <stop offset="100%" stop-color="#7A3BFF"/>
    </radialGradient>
    <filter id="bloom" x="-50%" y="-50%" width="200%" height="200%">
      <feGaussianBlur stdDeviation="2.5"/>
      <feMerge>
        <feMergeNode/>
        <feMergeNode in="SourceGraphic"/>
      </feMerge>
    </filter>
    <filter id="innerShadow" x="-20%" y="-20%" width="140%" height="140%">
      <feGaussianBlur stdDeviation="0.8"/>
    </filter>
  </defs>

  <!-- Obsidian background -->
  <rect x="200" y="25" width="200" height="200" fill="url(#bg)"/>

  <!-- Soft aura behind the medallion -->
  <circle cx="300" cy="125" r="95" fill="#5B5DFF" opacity="0.12"/>

  <!-- Gradient disc — this is the "paint" the paths will mask -->
  <circle cx="300" cy="125" r="82" fill="url(#brandGrad)" filter="url(#bloom)"/>

<g transform="translate(0.000000,327.000000) scale(0.100000,-0.100000)" fill="#06060d" stroke="none" filter="url(#innerShadow)">
<path d="M3440 3265 c0 -3 2 -5 5 -5 3 0 5 2 5 5 0 3 -2 5 -5 5 -3 0 -5 -2 -5
-5z"/>
<path d="M220 3215 c0 -3 2 -5 5 -5 3 0 5 2 5 5 0 3 -2 5 -5 5 -3 0 -5 -2 -5
-5z"/>
<path d="M4530 3215 c0 -3 2 -5 5 -5 3 0 5 2 5 5 0 3 -2 5 -5 5 -3 0 -5 -2 -5
-5z"/>
<path d="M3130 3195 c0 -3 2 -5 5 -5 3 0 5 2 5 5 0 3 -2 5 -5 5 -3 0 -5 -2 -5
-5z"/>
<path d="M5950 3195 c0 -3 2 -5 5 -5 3 0 5 2 5 5 0 3 -2 5 -5 5 -3 0 -5 -2 -5
-5z"/>
<path d="M840 3175 c0 -3 2 -5 5 -5 3 0 5 2 5 5 0 3 -2 5 -5 5 -3 0 -5 -2 -5
-5z"/>
<path d="M1620 3175 c0 -3 2 -5 5 -5 3 0 5 2 5 5 0 3 -2 5 -5 5 -3 0 -5 -2 -5
-5z"/>
<path d="M2000 3175 c0 -3 2 -5 5 -5 3 0 5 2 5 5 0 3 -2 5 -5 5 -3 0 -5 -2 -5
-5z"/>
<path d="M2150 3175 c0 -3 2 -5 5 -5 3 0 5 2 5 5 0 3 -2 5 -5 5 -3 0 -5 -2 -5
-5z"/>
<path d="M1100 3165 c0 -3 2 -5 5 -5 3 0 5 2 5 5 0 3 -2 5 -5 5 -3 0 -5 -2 -5
-5z"/>
<path d="M4190 3165 c0 -3 2 -5 5 -5 3 0 5 2 5 5 0 3 -2 5 -5 5 -3 0 -5 -2 -5
-5z"/>
<path d="M4300 3165 c0 -3 2 -5 5 -5 3 0 5 2 5 5 0 3 -2 5 -5 5 -3 0 -5 -2 -5
-5z"/>
<path d="M4760 3165 c0 -3 2 -5 5 -5 3 0 5 2 5 5 0 3 -2 5 -5 5 -3 0 -5 -2 -5
-5z"/>
<path d="M3510 3095 c0 -3 2 -5 5 -5 3 0 5 2 5 5 0 3 -2 5 -5 5 -3 0 -5 -2 -5
-5z"/>
<path d="M890 3085 c0 -3 2 -5 5 -5 3 0 5 2 5 5 0 3 -2 5 -5 5 -3 0 -5 -2 -5
-5z"/>
<path d="M2330 3015 c0 -3 2 -5 5 -5 3 0 5 2 5 5 0 3 -2 5 -5 5 -3 0 -5 -2 -5
-5z"/>
<path d="M2500 3015 c0 -3 2 -5 5 -5 3 0 5 2 5 5 0 3 -2 5 -5 5 -3 0 -5 -2 -5
-5z"/>
<path d="M1810 2975 c0 -3 2 -5 5 -5 3 0 5 2 5 5 0 3 -2 5 -5 5 -3 0 -5 -2 -5
-5z"/>
<path d="M5990 2975 c0 -3 2 -5 5 -5 3 0 5 2 5 5 0 3 -2 5 -5 5 -3 0 -5 -2 -5
-5z"/>
<path d="M3460 2955 c0 -3 2 -5 5 -5 3 0 5 2 5 5 0 3 -2 5 -5 5 -3 0 -5 -2 -5
-5z"/>
<path d="M2900 2915 c0 -3 2 -5 5 -5 3 0 5 2 5 5 0 3 -2 5 -5 5 -3 0 -5 -2 -5
-5z"/>
<path d="M2820 2905 c0 -3 2 -5 5 -5 3 0 5 2 5 5 0 3 -2 5 -5 5 -3 0 -5 -2 -5
-5z"/>
<path d="M2850 2905 c0 -3 2 -5 5 -5 3 0 5 2 5 5 0 3 -2 5 -5 5 -3 0 -5 -2 -5
-5z"/>
<path d="M2870 2895 c0 -3 2 -5 5 -5 3 0 5 2 5 5 0 3 -2 5 -5 5 -3 0 -5 -2 -5
-5z"/>
<path d="M1050 2885 c0 -3 2 -5 5 -5 3 0 5 2 5 5 0 3 -2 5 -5 5 -3 0 -5 -2 -5
-5z"/>
<path d="M2770 2885 c0 -3 2 -5 5 -5 3 0 5 2 5 5 0 3 -2 5 -5 5 -3 0 -5 -2 -5
-5z"/>
<path d="M3079 2881 c7 -5 10 -14 6 -20 -5 -9 -11 -9 -19 -1 -8 6 -27 7 -47 3
-28 -5 -30 -7 -14 -15 13 -5 5 -6 -21 -2 -24 3 -45 1 -48 -5 -4 -6 -14 -7 -23
-4 -11 4 -14 3 -9 -5 5 -9 1 -9 -18 -2 -17 6 -26 6 -30 -3 -3 -8 -9 -6 -19 6
-9 11 -18 14 -21 8 -4 -5 -2 -12 4 -16 6 -4 8 -11 4 -16 -3 -6 -12 -3 -20 8
-11 13 -14 14 -12 3 2 -10 -4 -14 -21 -12 -13 1 -30 -6 -38 -15 -14 -17 -14
-17 -9 0 8 25 -1 21 -41 -18 -20 -19 -40 -35 -45 -35 -4 0 -8 -6 -8 -14 0 -9
-7 -12 -22 -9 -19 4 -21 3 -8 -7 13 -10 13 -11 -2 -6 -24 7 -48 -3 -48 -21 0
-8 -4 -12 -10 -8 -5 3 -7 12 -3 20 3 8 0 15 -7 15 -6 0 -8 -4 -5 -10 3 -5 1
-10 -6 -10 -8 0 -8 -4 -1 -13 13 -15 -40 -52 -62 -44 -6 3 -23 -7 -37 -21
l-24 -27 30 19 30 19 -26 -29 c-14 -16 -33 -40 -42 -54 -10 -13 -17 -19 -17
-12 0 24 -19 11 -25 -17 -3 -16 -19 -50 -36 -75 -16 -26 -29 -51 -29 -57 0 -6
-6 -7 -12 -3 -7 4 -5 -2 5 -13 17 -20 17 -21 0 -19 -9 0 -18 -4 -18 -11 0 -7
-7 -21 -15 -31 -18 -22 -25 -46 -10 -37 5 3 10 1 10 -4 0 -6 -7 -11 -16 -11
-13 0 -14 -3 -5 -14 9 -10 9 -15 0 -18 -6 -2 -12 -15 -12 -30 -1 -14 -5 -24
-8 -22 -4 2 -9 -5 -12 -16 -3 -10 0 -21 7 -24 6 -2 3 -5 -6 -5 -10 -1 -18 -6
-18 -12 0 -6 -7 -9 -15 -5 -8 3 -15 1 -15 -4 0 -6 4 -10 8 -10 12 0 7 -49 -7
-63 -9 -9 -14 -9 -21 3 -8 11 -9 5 -8 -20 2 -25 -1 -34 -10 -32 -8 1 -11 -2
-8 -7 4 -5 3 -11 -1 -14 -5 -2 -2 -2 5 -1 12 3 16 -13 12 -50 -1 -11 3 -15 9
-12 6 4 9 1 5 -7 -3 -8 5 -25 18 -37 13 -12 19 -20 13 -18 -5 2 -10 -2 -10 -7
0 -6 6 -9 13 -9 9 2 10 -2 2 -11 -8 -10 -7 -14 2 -18 8 -3 6 -6 -5 -6 -10 -1
-15 -6 -12 -11 4 -6 11 -8 16 -5 5 4 9 -6 9 -22 0 -21 3 -25 10 -13 7 12 12
12 22 2 10 -10 10 -14 0 -21 -7 -4 -10 -15 -6 -24 3 -9 11 -14 17 -10 5 3 7 2
4 -4 -3 -5 -2 -23 3 -39 6 -21 9 -24 9 -9 2 18 3 18 16 -5 17 -30 19 -44 5
-35 -5 3 -10 2 -10 -4 0 -5 5 -11 10 -13 6 -2 12 -14 15 -27 2 -13 7 -26 11
-30 4 -3 4 2 1 12 -4 9 -3 17 2 17 16 0 20 -13 9 -33 -8 -16 -8 -19 5 -14 9 3
18 -1 21 -9 9 -24 7 -31 -4 -14 -7 11 -10 12 -10 2 0 -8 9 -16 20 -19 11 -3
17 -9 14 -14 -3 -5 3 -9 13 -9 15 0 16 -2 3 -10 -12 -7 -12 -10 -1 -10 8 0 11
-6 7 -17 -4 -10 -4 -14 0 -10 12 12 34 -14 34 -42 0 -20 2 -23 10 -11 7 11 10
11 10 2 0 -7 4 -11 9 -8 5 3 12 -1 15 -10 9 -24 8 -27 -11 -20 -10 4 -14 3 -9
-1 4 -4 17 -8 29 -8 11 0 22 -6 24 -12 3 -7 0 -13 -7 -13 -6 0 -8 5 -4 12 4 7
3 8 -4 4 -9 -5 -9 -13 -2 -27 12 -21 25 -25 35 -9 4 6 -1 7 -12 4 -15 -5 -15
-4 -3 4 21 16 45 -5 28 -25 -10 -13 -8 -14 17 -12 20 3 29 0 27 -9 -1 -6 4
-12 12 -12 9 0 13 -10 12 -31 -2 -33 -26 -56 -38 -36 -5 8 -8 6 -8 -6 0 -11
-5 -17 -12 -14 -7 2 -12 10 -10 16 1 7 -2 10 -8 6 -5 -3 -10 -1 -10 4 0 6 -5
11 -11 11 -5 0 -8 -4 -4 -9 3 -5 0 -13 -7 -17 -7 -4 -10 -4 -6 1 4 4 3 14 -3
22 -10 11 -14 10 -23 -3 -11 -14 -14 -14 -27 -2 -14 14 -59 8 -59 -7 0 -4 5
-3 12 1 7 4 8 3 4 -4 -4 -6 -13 -9 -21 -6 -8 4 -12 11 -9 16 4 6 -3 5 -15 -1
-17 -9 -21 -9 -21 2 0 8 -7 14 -15 14 -8 0 -15 -4 -15 -9 0 -13 -44 -9 -59 5
-11 10 -13 10 -7 0 4 -8 1 -13 -8 -13 -9 0 -16 5 -16 12 0 6 -9 2 -20 -10 -11
-12 -27 -19 -35 -16 -8 4 -21 1 -28 -5 -10 -8 -14 -7 -14 4 0 8 5 11 10 8 6
-3 7 -1 3 5 -11 18 -24 14 -31 -9 -7 -20 -7 -20 -23 -1 -10 10 -27 18 -39 17
-13 -1 -23 2 -23 7 0 4 5 8 10 8 6 0 10 8 10 18 0 9 -4 13 -8 7 -4 -5 -18 -12
-32 -13 -14 -2 -29 -8 -34 -13 -5 -5 -15 -1 -23 9 -14 16 -14 16 -9 0 3 -10 0
-20 -6 -24 -7 -4 -8 -3 -4 4 4 7 -3 14 -19 18 -19 5 -24 11 -20 25 4 11 2 19
-5 19 -6 0 -8 -5 -4 -11 4 -8 -3 -9 -27 -3 -29 6 -51 10 -81 13 -5 1 -8 6 -8
12 0 5 4 8 9 4 5 -3 12 -1 15 4 4 5 -2 8 -11 6 -10 -2 -25 -4 -33 -5 -10 -1
-11 -3 -2 -7 15 -6 16 -29 0 -39 -6 -4 -8 -3 -5 3 4 6 0 16 -7 22 -15 13 -32
-1 -22 -18 4 -5 -3 -7 -14 -4 -12 3 -20 0 -20 -6 0 -7 5 -9 13 -5 8 5 8 3 -2
-9 -14 -18 -36 -13 -25 5 4 7 2 8 -5 4 -6 -4 -9 -11 -6 -16 3 -4 -5 -10 -16
-13 -12 -3 -19 -10 -16 -14 3 -5 2 -15 -4 -23 -7 -13 -9 -13 -9 0 -1 8 -9 -1
-20 -20 -11 -19 -20 -28 -20 -20 -1 20 -40 -26 -40 -47 0 -8 -4 -11 -10 -8 -5
3 -10 1 -10 -4 0 -6 5 -11 11 -11 8 0 8 -4 0 -14 -7 -8 -20 -13 -30 -11 -11 2
-17 -3 -17 -15 0 -10 4 -16 8 -14 4 3 8 0 8 -5 0 -6 -7 -11 -16 -11 -12 0 -14
-10 -11 -54 6 -62 -4 -86 -26 -67 -18 14 -13 -44 5 -67 8 -8 7 -12 -3 -12 -9
0 -10 -3 -4 -8 22 -15 46 -90 25 -77 -5 3 -10 1 -10 -5 0 -7 7 -9 15 -6 10 3
18 -1 22 -12 4 -9 33 -43 65 -76 32 -32 57 -65 56 -73 -2 -12 10 -16 52 -19
30 -2 60 -6 67 -8 7 -3 13 -2 13 2 0 4 27 7 59 7 33 0 57 -3 54 -8 -2 -4 7 -6
21 -3 13 2 26 0 28 -5 2 -5 31 -9 64 -10 34 -1 68 -5 75 -9 16 -11 41 -1 32
13 -3 6 -1 7 6 3 6 -4 9 -12 6 -17 -4 -5 -1 -9 5 -9 6 0 9 -3 7 -7 -3 -5 6 -9
19 -9 23 -2 24 -1 7 13 -16 13 -15 13 7 1 14 -7 28 -11 32 -10 3 1 12 -6 20
-15 8 -10 8 -14 1 -10 -6 4 -14 3 -17 -1 -3 -5 10 -14 29 -20 29 -8 35 -8 35
5 0 12 3 11 17 -3 10 -10 19 -12 21 -6 2 6 10 8 18 5 7 -3 11 -9 8 -14 -3 -5
0 -9 5 -9 6 0 11 8 11 17 0 13 3 14 12 5 19 -19 49 -15 41 5 -4 10 -2 14 5 9
6 -3 13 -2 17 3 3 6 12 8 20 4 9 -3 22 0 30 7 8 7 24 10 35 7 11 -3 18 0 17 7
-1 6 5 10 14 8 9 -1 19 5 23 13 4 11 11 13 23 8 10 -5 43 -6 73 -2 30 3 48 7
40 8 -11 2 -9 5 5 10 23 9 95 2 95 -9 0 -8 80 -5 135 6 17 3 38 6 47 7 9 1 16
6 15 12 -1 5 6 9 16 9 14 -2 15 1 7 11 -9 11 -7 14 7 13 25 -1 73 19 73 31 0
10 9 9 48 -6 23 -8 45 -14 59 -15 10 -1 10 -5 1 -15 -14 -18 21 -5 41 14 7 8
16 11 19 8 4 -3 0 -10 -8 -16 -21 -13 4 -29 34 -21 19 5 20 4 6 -13 -13 -17
-13 -18 0 -9 8 5 24 9 35 10 55 3 91 10 97 19 5 6 8 3 8 -7 0 -21 26 -24 33
-5 4 9 6 9 6 0 1 -7 11 -13 24 -13 18 0 19 2 7 10 -13 8 -12 10 3 10 9 0 17
-4 17 -10 0 -5 5 -10 11 -10 5 0 8 4 5 9 -9 14 23 22 44 11 23 -12 33 -13 26
-1 -7 11 22 23 35 15 5 -3 7 -10 4 -15 -4 -5 -3 -9 2 -9 4 0 49 -3 98 -6 207
-12 277 -11 282 3 6 17 24 17 21 1 -3 -13 34 -14 81 -3 20 5 22 8 10 16 -20
12 -2 11 23 -2 15 -8 19 -8 14 0 -4 6 -3 11 2 11 4 0 27 16 50 36 24 20 47 32
54 28 8 -5 9 -2 5 9 -7 20 8 23 17 5 4 -7 4 -3 2 9 -3 18 22 38 37 30 2 -1 12
6 22 16 12 13 21 15 28 8 18 -18 31 -12 16 6 -12 15 -12 16 4 10 10 -4 17 -2
17 6 0 7 3 8 8 2 9 -13 32 -17 32 -6 0 7 94 26 113 23 4 -1 7 3 7 9 0 6 6 9
14 6 7 -3 26 8 41 23 16 16 32 27 37 24 4 -3 8 1 8 9 0 8 9 22 20 32 11 10 17
22 13 28 -3 6 -1 7 5 3 7 -4 12 -2 12 4 0 6 4 9 9 6 11 -7 23 22 14 37 -4 6 0
8 10 4 12 -4 14 -2 10 10 -5 12 -2 14 8 9 8 -4 7 -1 -3 6 -9 8 -16 25 -17 38
-2 81 -7 88 -56 81 -5 -1 0 7 13 18 22 19 31 38 12 26 -6 -4 -18 2 -28 12 -9
11 -13 13 -9 7 6 -9 2 -11 -13 -7 -13 4 -19 11 -16 20 15 38 -58 64 -99 37
-23 -15 -25 -15 -25 0 0 10 5 14 10 11 11 -7 14 18 4 28 -13 12 -32 -5 -28
-26 4 -22 4 -22 -7 1 -12 22 -46 27 -42 5 1 -6 -12 -11 -30 -10 -18 0 -41 -4
-51 -8 -11 -5 -17 -5 -14 1 4 5 -28 10 -75 11 -117 3 -135 4 -114 10 25 7 21
25 -5 21 -13 -2 -22 -8 -21 -14 1 -6 -19 -12 -49 -13 -28 -1 -54 -4 -59 -6 -4
-3 -13 3 -19 12 -10 17 -10 17 -8 -1 2 -10 -4 -21 -12 -23 -13 -4 -13 -3 0 6
14 10 7 16 -14 12 -5 -1 -6 5 -3 14 4 8 2 15 -3 15 -6 0 -10 -7 -10 -15 0 -8
-6 -12 -14 -9 -8 3 -24 1 -35 -6 -12 -6 -21 -7 -20 -3 3 19 -2 27 -10 15 -4
-8 -19 -12 -32 -10 l-24 3 25 23 c13 12 21 22 18 22 -4 0 -21 -13 -39 -29 -29
-27 -59 -32 -59 -9 0 5 5 6 10 3 6 -3 10 -2 10 3 0 18 -29 21 -34 4 -6 -18
-56 -25 -53 -7 1 6 -3 9 -9 8 -7 -1 -10 14 -8 42 1 28 -2 45 -8 45 -6 0 -8 3
-5 6 4 4 13 1 22 -6 12 -10 15 -10 15 4 0 9 -5 16 -12 16 -16 0 -1 13 18 16
10 2 14 -3 10 -13 -5 -13 -4 -14 8 -4 16 13 11 40 -8 42 -6 0 3 7 19 14 17 8
26 14 21 15 -5 0 -3 7 4 15 9 11 16 12 25 5 9 -8 14 -6 18 4 3 8 2 16 -4 18
-12 4 19 48 34 48 7 0 6 -4 -3 -10 -8 -5 -10 -10 -4 -10 18 0 24 12 13 26 -7
9 -4 14 12 19 17 6 19 9 8 16 -11 7 -11 9 -1 9 8 0 10 5 6 13 -5 7 0 6 11 -3
17 -14 17 -13 11 8 -5 14 -3 29 5 38 6 8 9 17 5 21 -3 3 3 13 14 20 11 8 18
19 15 24 -4 5 2 9 12 9 14 0 15 2 4 9 -16 11 1 67 27 88 8 6 11 17 6 24 -4 8
-3 10 4 5 7 -4 12 -1 12 6 0 7 11 26 25 41 20 21 22 27 10 27 -9 0 -13 5 -10
10 4 6 11 7 17 4 7 -5 8 -2 3 5 -4 7 -3 23 3 34 5 12 15 35 21 50 6 15 14 26
19 24 10 -7 7 82 -3 91 -5 4 -5 1 -1 -5 4 -7 3 -13 -2 -13 -17 0 -21 28 -7 40
17 14 8 40 -14 39 -10 0 -11 -2 -3 -6 6 -2 12 -11 12 -20 0 -12 -2 -12 -16 2
-9 8 -14 21 -11 28 3 8 -3 19 -13 25 -11 6 -20 26 -22 44 -2 26 -7 32 -22 30
-13 -2 -16 0 -10 10 18 28 13 70 -7 65 -20 -5 -27 9 -8 15 13 4 -10 51 -38 76
-12 11 -18 28 -17 46 2 15 1 26 -2 23 -10 -10 -40 28 -36 45 2 10 8 15 13 12
5 -3 9 0 9 5 0 15 -37 14 -43 -1 -3 -7 -6 3 -6 22 -1 24 -4 31 -10 21 -7 -11
-10 -9 -16 8 -3 12 -11 18 -17 15 -6 -4 -6 2 1 15 7 11 9 22 6 22 -3 1 -9 3
-15 4 -5 1 -18 3 -27 5 -11 1 -13 3 -5 7 6 2 12 9 12 14 0 6 -6 7 -12 3 -7 -4
-4 3 7 17 11 13 13 18 4 12 -12 -10 -18 -10 -29 0 -10 10 -11 9 -5 -3 4 -8 -4
-1 -18 15 -20 24 -23 33 -14 44 10 12 9 12 -11 2 -18 -10 -23 -9 -28 3 -3 8
-16 17 -30 20 -13 4 -24 11 -24 17 0 6 -4 8 -9 5 -4 -3 -17 2 -27 10 -18 15
-18 15 8 11 15 -2 25 0 22 5 -3 5 -20 8 -37 8 -18 0 -45 2 -62 4 -16 3 -34 5
-38 5 -5 1 -5 6 -2 11 3 6 1 10 -5 10 -6 0 -9 4 -5 9 3 5 0 13 -6 17 -8 5 -9
3 -4 -6 6 -9 2 -10 -15 -5 -12 4 -30 8 -38 9 -9 2 -18 8 -20 14 -3 9 -9 9 -23
2 -11 -6 -19 -7 -19 -1 0 5 -7 12 -16 15 -8 3 -12 2 -9 -4 7 -11 -43 8 -59 22
-17 14 -28 9 -22 -9 4 -13 0 -11 -14 6 -11 13 -20 19 -20 13 0 -6 -9 -8 -20
-5 -11 3 -20 9 -20 14 0 5 -8 9 -17 9 -14 0 -15 -2 -4 -9z m51 -36 c0 -3 -2
-5 -5 -5 -3 0 -5 2 -5 5 0 3 2 5 5 5 3 0 5 -2 5 -5z m-270 -40 c0 -3 -2 -5 -5
-5 -3 0 -5 2 -5 5 0 3 2 5 5 5 3 0 5 -2 5 -5z m-100 -10 c0 -3 -2 -5 -5 -5 -3
0 -5 2 -5 5 0 3 2 5 5 5 3 0 5 -2 5 -5z m600 0 c0 -3 -2 -5 -5 -5 -3 0 -5 2
-5 5 0 3 2 5 5 5 3 0 5 -2 5 -5z m30 -10 c0 -3 -2 -5 -5 -5 -3 0 -5 2 -5 5 0
3 2 5 5 5 3 0 5 -2 5 -5z m90 -40 c0 -3 -2 -5 -5 -5 -3 0 -5 2 -5 5 0 3 2 5 5
5 3 0 5 -2 5 -5z m-400 -146 c0 -102 -2 -114 -30 -169 -38 -76 -39 -74 18 -67
56 7 163 -12 246 -43 l58 -22 47 46 46 47 -30 24 c-67 55 -162 94 -287 120
-26 5 -28 9 -28 55 l0 50 38 0 c86 0 237 -61 328 -131 46 -35 55 -39 72 -28
21 13 57 -3 50 -22 -2 -5 -97 -103 -212 -219 -198 -201 -208 -213 -197 -236
65 -143 -114 -275 -227 -166 -115 109 -3 293 147 241 29 -10 33 -9 61 21 17
18 30 35 30 39 0 16 -65 43 -114 48 -266 27 -374 -336 -137 -459 192 -101 410
89 337 294 -13 36 -13 37 25 73 44 44 51 41 78 -29 53 -141 41 -193 -108 -471
-112 -211 -118 -225 -103 -225 21 0 175 70 206 94 l33 25 38 -39 c20 -21 34
-43 31 -49 -25 -40 -225 -123 -332 -137 -47 -6 -52 -9 -68 -45 -28 -63 -36
-46 -36 74 0 107 2 117 30 168 16 30 30 57 30 60 0 3 -46 9 -102 12 -72 3
-129 13 -187 32 l-83 27 -34 -33 c-19 -18 -34 -36 -34 -41 0 -33 197 -129 293
-143 l47 -7 0 -54 c0 -64 -3 -65 -122 -35 -86 22 -158 56 -239 113 -50 35 -59
38 -77 27 -17 -10 -23 -10 -36 0 -26 22 -20 32 64 115 44 43 80 82 80 85 0 3
-28 21 -63 38 -111 58 -347 246 -347 278 0 28 259 240 370 302 59 33 58 31 20
74 -36 42 -51 36 -97 -40 -18 -30 -50 -65 -75 -81 -24 -16 -54 -40 -67 -54
-14 -14 -29 -26 -34 -26 -28 0 59 199 118 267 31 37 34 45 23 62 -12 20 2 51
24 51 5 0 51 -43 101 -96 76 -80 95 -94 114 -89 13 3 23 3 23 0 0 -15 -93
-174 -104 -178 -17 -7 -182 -132 -218 -165 l-28 -26 23 -24 c12 -13 69 -55
126 -93 153 -103 251 -149 192 -90 -50 50 -76 121 -76 211 0 101 -3 94 142
370 62 118 113 218 113 222 0 18 -190 -60 -251 -103 -24 -18 -98 53 -79 75 28
34 206 113 281 126 41 6 83 13 94 15 13 3 26 18 34 40 21 58 31 30 31 -86z
m580 30 c0 -5 -5 -9 -11 -9 -5 0 -7 5 -4 10 3 6 1 10 -4 10 -6 0 -11 5 -11 11
0 8 5 8 15 -1 8 -7 15 -16 15 -21z m30 -44 c0 -3 -2 -5 -5 -5 -3 0 -5 2 -5 5
0 3 2 5 5 5 3 0 5 -2 5 -5z m60 -30 c0 -3 -2 -5 -5 -5 -3 0 -5 2 -5 5 0 3 2 5
5 5 3 0 5 -2 5 -5z m-1430 -140 c0 -3 -2 -5 -5 -5 -3 0 -5 2 -5 5 0 3 2 5 5 5
3 0 5 -2 5 -5z m1330 -77 c43 -66 110 -228 94 -228 -22 0 -163 126 -184 164
l-24 46 34 35 c43 44 39 45 80 -17z m190 37 c0 -3 -2 -5 -5 -5 -3 0 -5 2 -5 5
0 3 2 5 5 5 3 0 5 -2 5 -5z m47 -82 c-4 -3 -7 0 -7 7 0 7 3 10 7 7 3 -4 3 -10
0 -14z m3 -18 c0 -3 -2 -5 -5 -5 -3 0 -5 2 -5 5 0 3 2 5 5 5 3 0 5 -2 5 -5z
m20 -10 c0 -3 -2 -5 -5 -5 -3 0 -5 2 -5 5 0 3 2 5 5 5 3 0 5 -2 5 -5z m-1650
-10 c0 -3 -2 -5 -5 -5 -3 0 -5 2 -5 5 0 3 2 5 5 5 3 0 5 -2 5 -5z m1302 -71
c130 -89 298 -230 298 -251 0 -29 -323 -277 -389 -298 -28 -9 -26 -26 4 -55
l26 -24 52 54 c48 51 178 152 185 145 11 -10 -82 -187 -130 -247 -18 -23 -19
-30 -8 -43 11 -14 10 -19 -9 -38 l-22 -22 -88 93 c-79 84 -90 93 -114 87 -35
-9 -34 -8 14 81 36 66 49 80 112 120 40 26 101 69 136 97 61 49 62 51 43 66
-10 9 -50 41 -88 72 -38 31 -96 73 -129 94 -33 22 -62 41 -64 42 -6 4 71 83
81 83 4 0 45 -25 90 -56z m-1332 21 c0 -3 -2 -5 -5 -5 -3 0 -5 2 -5 5 0 3 2 5
5 5 3 0 5 -2 5 -5z m1700 -60 c0 -3 -2 -5 -5 -5 -3 0 -5 2 -5 5 0 3 2 5 5 5 3
0 5 -2 5 -5z m10 -40 c0 -3 -2 -5 -5 -5 -3 0 -5 2 -5 5 0 3 2 5 5 5 3 0 5 -2
5 -5z m60 -80 c0 -3 -2 -5 -5 -5 -3 0 -5 2 -5 5 0 3 2 5 5 5 3 0 5 -2 5 -5z
m30 -80 c0 -3 -2 -5 -5 -5 -3 0 -5 2 -5 5 0 3 2 5 5 5 3 0 5 -2 5 -5z m-1830
-190 c0 -3 -2 -5 -5 -5 -3 0 -5 2 -5 5 0 3 2 5 5 5 3 0 5 -2 5 -5z m285 -60
c43 -30 86 -66 97 -80 l20 -25 -32 -40 c-17 -22 -35 -40 -39 -40 -18 0 -131
202 -131 234 0 11 8 6 85 -49z m-240 -35 c-3 -5 -12 -10 -18 -10 -7 0 -6 4 3
10 19 12 23 12 15 0z m32 -107 c-4 -3 -7 0 -7 7 0 7 3 10 7 7 3 -4 3 -10 0
-14z m1523 -118 c0 -3 -2 -5 -5 -5 -3 0 -5 2 -5 5 0 3 2 5 5 5 3 0 5 -2 5 -5z
m-60 -70 c0 -3 -2 -5 -5 -5 -3 0 -5 2 -5 5 0 3 2 5 5 5 3 0 5 -2 5 -5z m-1320
-10 c0 -3 -2 -5 -5 -5 -3 0 -5 2 -5 5 0 3 2 5 5 5 3 0 5 -2 5 -5z m120 -120
c0 -3 -2 -5 -5 -5 -3 0 -5 2 -5 5 0 3 2 5 5 5 3 0 5 -2 5 -5z m1043 -55 c-12
-9 -19 -20 -16 -24 3 -3 12 3 20 14 19 27 33 25 33 -5 0 -22 -4 -25 -34 -25
-19 0 -38 -5 -42 -12 -5 -7 -2 -8 7 -3 10 6 11 5 4 -3 -12 -13 -55 -5 -55 10
0 6 7 8 15 4 13 -5 14 -2 4 17 -6 12 -8 19 -5 15 4 -3 24 5 43 18 40 27 61 22
26 -6z m-1913 15 c0 -3 -2 -5 -5 -5 -3 0 -5 2 -5 5 0 3 2 5 5 5 3 0 5 -2 5 -5z
m920 0 c0 -3 -2 -5 -5 -5 -3 0 -5 2 -5 5 0 3 2 5 5 5 3 0 5 -2 5 -5z m0 -45
c0 -11 -4 -20 -9 -20 -5 0 -7 9 -4 20 3 11 7 20 9 20 2 0 4 -9 4 -20z m-626
-5 c-4 -8 -12 -15 -20 -15 -20 0 -17 18 4 23 9 3 18 5 19 6 1 0 0 -6 -3 -14z
m656 10 c0 -3 -2 -5 -5 -5 -3 0 -5 2 -5 5 0 3 2 5 5 5 3 0 5 -2 5 -5z m860
-20 c0 -3 -2 -5 -5 -5 -3 0 -5 2 -5 5 0 3 2 5 5 5 3 0 5 -2 5 -5z m121 -22
c12 -16 12 -17 -2 -6 -9 7 -20 9 -24 5 -5 -4 -5 -1 -1 6 9 16 11 15 27 -5z
m19 12 c0 -3 -2 -5 -5 -5 -3 0 -5 2 -5 5 0 3 2 5 5 5 3 0 5 -2 5 -5z m850 0
c0 -3 -2 -5 -5 -5 -3 0 -5 2 -5 5 0 3 2 5 5 5 3 0 5 -2 5 -5z m-2030 -10 c0
-3 -2 -5 -5 -5 -3 0 -5 2 -5 5 0 3 2 5 5 5 3 0 5 -2 5 -5z m220 0 c0 -3 -2 -5
-5 -5 -3 0 -5 2 -5 5 0 3 2 5 5 5 3 0 5 -2 5 -5z m830 -11 c0 -8 -19 -13 -24
-6 -3 5 1 9 9 9 8 0 15 -2 15 -3z m-1020 -9 c0 -3 -2 -5 -5 -5 -3 0 -5 2 -5 5
0 3 2 5 5 5 3 0 5 -2 5 -5z m1070 0 c0 -3 -2 -5 -5 -5 -3 0 -5 2 -5 5 0 3 2 5
5 5 3 0 5 -2 5 -5z m250 0 c0 -3 -2 -5 -5 -5 -3 0 -5 2 -5 5 0 3 2 5 5 5 3 0
5 -2 5 -5z m27 -2 c-4 -3 -10 -3 -14 0 -3 4 0 7 7 7 7 0 10 -3 7 -7z m103 2
c0 -3 -2 -5 -5 -5 -3 0 -5 2 -5 5 0 3 2 5 5 5 3 0 5 -2 5 -5z m320 0 c0 -3 -2
-5 -5 -5 -3 0 -5 2 -5 5 0 3 2 5 5 5 3 0 5 -2 5 -5z m180 0 c0 -3 -2 -5 -5 -5
-3 0 -5 2 -5 5 0 3 2 5 5 5 3 0 5 -2 5 -5z m97 -12 c-4 -3 -7 0 -7 7 0 7 3 10
7 7 3 -4 3 -10 0 -14z m53 -13 c0 -4 -7 -11 -16 -14 -8 -3 -12 -2 -9 3 3 5 1
12 -5 16 -6 4 -8 11 -4 16 6 10 34 -7 34 -21z m-230 15 c0 -3 -2 -5 -5 -5 -3
0 -5 2 -5 5 0 3 2 5 5 5 3 0 5 -2 5 -5z m-2840 -50 c0 -3 -2 -5 -5 -5 -3 0 -5
2 -5 5 0 3 2 5 5 5 3 0 5 -2 5 -5z m3130 -19 c0 -3 -5 -8 -12 -12 -7 -4 -8 -3
-4 4 7 12 16 16 16 8z m-2790 -188 c65 -194 64 -183 20 -183 -32 0 -36 3 -49
43 l-13 43 -61 -3 -60 -3 -15 -42 c-12 -39 -17 -43 -46 -43 -18 0 -35 2 -38 6
-4 4 40 141 107 332 3 7 23 12 52 12 l48 0 55 -162z m1180 -54 c0 -103 -4
-164 -10 -164 -6 0 -10 64 -10 171 0 111 3 168 10 164 6 -4 10 -72 10 -171z
m210 156 c0 -5 -9 -10 -20 -10 -18 0 -20 -7 -20 -61 0 -81 -24 -77 -28 4 -3
49 -6 57 -22 57 -11 0 -20 5 -20 10 0 6 25 10 55 10 30 0 55 -4 55 -10z m40
-20 c0 -27 3 -30 30 -30 27 0 30 3 30 31 0 20 4 29 13 26 15 -5 14 -130 -2
-135 -6 -2 -11 9 -11 27 0 28 -3 31 -30 31 -27 0 -30 -3 -30 -30 0 -16 -4 -30
-10 -30 -6 0 -10 30 -10 70 0 40 4 70 10 70 6 0 10 -13 10 -30z m200 20 c0 -5
-13 -10 -30 -10 -23 0 -30 -4 -30 -20 0 -16 7 -20 31 -20 17 0 28 -4 24 -10
-3 -5 -17 -10 -31 -10 -17 0 -24 -5 -24 -20 0 -16 7 -20 30 -20 17 0 30 -4 30
-10 0 -5 -20 -10 -45 -10 l-45 0 0 70 0 70 45 0 c25 0 45 -4 45 -10z m160 0
c36 -19 34 -97 -4 -122 -40 -27 -91 12 -89 69 2 54 45 79 93 53z m96 -37 l20
-48 22 48 c32 73 54 64 50 -20 -3 -71 -19 -88 -28 -31 l-5 33 -14 -33 c-20
-48 -29 -48 -50 0 l-20 43 0 -42 c-1 -24 -5 -43 -11 -43 -6 0 -10 30 -10 70 0
85 17 93 46 23z m171 -1 l33 -47 0 48 c0 26 5 47 10 47 6 0 10 -30 10 -70 0
-81 -7 -85 -46 -27 l-29 42 -5 -38 c-8 -62 -25 -47 -28 26 -4 82 9 87 55 19z
m103 -22 c0 -40 -4 -70 -10 -70 -6 0 -10 30 -10 70 0 40 4 70 10 70 6 0 10
-30 10 -70z m104 64 c9 -3 16 -12 16 -20 0 -17 -12 -18 -26 -4 -11 11 -44 3
-44 -10 0 -5 15 -14 34 -20 28 -9 46 -26 46 -45 0 -32 -69 -44 -93 -17 -22 24
-9 37 14 16 19 -17 49 -13 49 6 0 5 -16 16 -35 24 -67 28 -29 96 39 70z m66
-64 c0 -40 -4 -70 -10 -70 -6 0 -10 30 -10 70 0 40 4 70 10 70 6 0 10 -30 10
-70z m134 48 c16 -25 -1 -34 -25 -13 -28 26 -54 9 -54 -35 0 -43 27 -62 52
-37 16 16 16 17 0 17 -9 0 -17 7 -17 16 0 24 44 13 48 -12 6 -45 -52 -69 -93
-38 -50 38 -14 128 49 122 16 -2 34 -11 40 -20z m56 -9 c0 -27 3 -30 28 -27
15 2 28 9 28 16 1 6 2 19 3 27 0 8 6 15 11 15 6 0 10 -30 10 -70 0 -40 -4 -70
-10 -70 -5 0 -10 14 -10 30 0 27 -3 30 -30 30 -27 0 -30 -3 -30 -30 0 -20 -5
-30 -15 -30 -12 0 -15 14 -15 70 0 56 3 70 15 70 10 0 15 -10 15 -31z m210 21
c0 -5 -9 -10 -20 -10 -18 0 -20 -7 -20 -60 0 -47 -3 -60 -15 -60 -12 0 -15 13
-15 60 0 53 -2 60 -20 60 -11 0 -20 5 -20 10 0 6 25 10 55 10 30 0 55 -4 55
-10z m-3140 -30 c0 -5 -5 -10 -11 -10 -5 0 -7 5 -4 10 3 6 8 10 11 10 2 0 4
-4 4 -10z m566 -5 c5 -13 8 -13 27 0 40 28 69 20 65 -17 -3 -28 -7 -33 -33
-35 -44 -3 -55 -26 -55 -114 l0 -77 -30 -4 c-17 -3 -32 -2 -35 0 -8 8 -6 248
2 255 12 13 54 7 59 -8z m250 0 c25 -19 34 -19 34 1 0 11 8 14 32 12 l33 -3
-3 -150 -3 -150 -31 -29 c-56 -51 -217 -20 -195 38 8 20 46 20 71 1 43 -33 96
-3 96 53 l0 23 -26 -20 c-69 -55 -154 7 -154 111 0 93 85 159 146 113z m214
-69 c0 -102 19 -139 63 -119 25 12 26 16 29 105 l3 93 35 0 35 0 3 -127 3
-128 -36 0 c-25 0 -35 4 -35 15 0 13 -6 11 -29 -6 -23 -17 -37 -20 -65 -15
-53 10 -69 41 -74 147 -5 107 -2 119 38 119 l30 0 0 -84z m386 65 c47 -29 52
-61 9 -61 -19 0 -37 5 -40 10 -3 6 -22 10 -41 10 -59 0 -41 -32 26 -48 69 -17
90 -36 90 -79 0 -59 -63 -94 -145 -79 -36 7 -75 40 -75 63 0 15 66 19 72 4 6
-17 44 -21 64 -6 25 20 3 39 -56 49 -71 11 -100 63 -64 114 31 44 107 55 160
23z m-1419 -18 c-4 -3 -10 -3 -14 0 -3 4 0 7 7 7 7 0 10 -3 7 -7z m-40 -125
c-3 -8 -6 -5 -6 6 -1 11 2 17 5 13 3 -3 4 -12 1 -19z m3223 17 c0 -3 -2 -5 -5
-5 -3 0 -5 2 -5 5 0 3 2 5 5 5 3 0 5 -2 5 -5z m-1392 -27 c29 -29 7 -78 -34
-78 -16 0 -24 -7 -26 -22 -2 -12 -9 -23 -15 -26 -10 -3 -13 15 -13 67 l0 71
38 0 c21 0 43 -5 50 -12z m52 -43 c0 -55 0 -55 31 -55 44 0 32 -24 -14 -28
l-37 -3 0 70 c0 41 4 71 10 71 6 0 10 -25 10 -55z m169 -11 c13 -36 21 -68 18
-71 -9 -8 -27 7 -27 23 0 22 -48 17 -60 -6 -18 -34 -30 -12 -15 28 28 79 35
92 47 92 7 0 24 -30 37 -66z m121 56 c0 -5 -9 -10 -20 -10 -16 0 -19 -8 -22
-55 -2 -30 -7 -55 -13 -55 -5 0 -11 25 -13 55 -3 47 -6 55 -22 55 -11 0 -20 5
-20 10 0 6 25 10 55 10 30 0 55 -4 55 -10z m100 0 c0 -5 -13 -10 -30 -10 -23
0 -30 -4 -30 -20 0 -16 7 -20 30 -20 17 0 30 -4 30 -10 0 -5 -13 -10 -30 -10
-27 0 -30 -3 -30 -30 0 -16 -4 -30 -10 -30 -6 0 -10 30 -10 70 l0 70 40 0 c22
0 40 -4 40 -10z m129 -24 c29 -61 -30 -127 -83 -93 -31 21 -37 85 -10 112 26
26 76 16 93 -19z m109 22 c15 -15 16 -54 2 -63 -6 -4 -4 -15 6 -30 9 -15 11
-25 5 -29 -6 -4 -18 5 -27 19 -21 32 -44 33 -44 0 0 -14 -4 -25 -10 -25 -6 0
-10 30 -10 70 l0 70 33 0 c18 0 38 -5 45 -12z m84 -35 l22 -48 20 48 c29 70
46 62 46 -23 0 -40 -4 -70 -10 -70 -5 0 -10 19 -11 43 l0 42 -20 -43 c-21 -48
-30 -48 -50 0 l-14 33 -5 -33 c-6 -39 -24 -47 -28 -13 -5 36 8 111 19 111 6 0
20 -21 31 -47z m-2562 -8 c0 -3 -2 -5 -5 -5 -3 0 -5 2 -5 5 0 3 2 5 5 5 3 0 5
-2 5 -5z m2920 -30 c0 -3 -2 -5 -5 -5 -3 0 -5 2 -5 5 0 3 2 5 5 5 3 0 5 -2 5
-5z m77 -12 c-4 -3 -7 0 -7 7 0 7 3 10 7 7 3 -4 3 -10 0 -14z m23 12 c0 -3 -2
-5 -5 -5 -3 0 -5 2 -5 5 0 3 2 5 5 5 3 0 5 -2 5 -5z m-200 -60 c0 -3 -2 -5 -5
-5 -3 0 -5 2 -5 5 0 3 2 5 5 5 3 0 5 -2 5 -5z m-1180 -80 c0 -3 -2 -5 -5 -5
-3 0 -5 2 -5 5 0 3 2 5 5 5 3 0 5 -2 5 -5z m167 -62 c-4 -3 -7 0 -7 7 0 7 3
10 7 7 3 -4 3 -10 0 -14z m23 12 c0 -3 -2 -5 -5 -5 -3 0 -5 2 -5 5 0 3 2 5 5
5 3 0 5 -2 5 -5z m-1680 -10 c0 -3 -2 -5 -5 -5 -3 0 -5 2 -5 5 0 3 2 5 5 5 3
0 5 -2 5 -5z m170 0 c0 -3 -2 -5 -5 -5 -3 0 -5 2 -5 5 0 3 2 5 5 5 3 0 5 -2 5
-5z m1840 0 c0 -3 -2 -5 -5 -5 -3 0 -5 2 -5 5 0 3 2 5 5 5 3 0 5 -2 5 -5z
m130 0 c0 -3 -2 -5 -5 -5 -3 0 -5 2 -5 5 0 3 2 5 5 5 3 0 5 -2 5 -5z m217 -12
c-4 -3 -7 0 -7 7 0 7 3 10 7 7 3 -4 3 -10 0 -14z m-177 2 c0 -3 -2 -5 -5 -5
-3 0 -5 2 -5 5 0 3 2 5 5 5 3 0 5 -2 5 -5z m100 0 c0 -3 -2 -5 -5 -5 -3 0 -5
2 -5 5 0 3 2 5 5 5 3 0 5 -2 5 -5z m50 0 c0 -3 -2 -5 -5 -5 -3 0 -5 2 -5 5 0
3 2 5 5 5 3 0 5 -2 5 -5z m110 0 c0 -3 -2 -5 -5 -5 -3 0 -5 2 -5 5 0 3 2 5 5
5 3 0 5 -2 5 -5z m-2085 -15 c3 -5 4 -10 1 -10 -3 0 -8 5 -11 10 -3 6 -4 10
-1 10 3 0 8 -4 11 -10z m-55 -5 c0 -3 -2 -5 -5 -5 -3 0 -5 2 -5 5 0 3 2 5 5 5
3 0 5 -2 5 -5z m705 -5 c-3 -5 -21 -9 -38 -9 l-32 2 35 7 c19 4 36 8 38 9 2 0
0 -3 -3 -9z m165 5 c0 -3 -2 -5 -5 -5 -3 0 -5 2 -5 5 0 3 2 5 5 5 3 0 5 -2 5
-5z m60 0 c0 -3 -2 -5 -5 -5 -3 0 -5 2 -5 5 0 3 2 5 5 5 3 0 5 -2 5 -5z m-800
-10 c0 -3 -2 -5 -5 -5 -3 0 -5 2 -5 5 0 3 2 5 5 5 3 0 5 -2 5 -5z m410 -30 c0
-3 -2 -5 -5 -5 -3 0 -5 2 -5 5 0 3 2 5 5 5 3 0 5 -2 5 -5z m-255 -35 c3 -5 4
-10 1 -10 -3 0 -8 5 -11 10 -3 6 -4 10 -1 10 3 0 8 -4 11 -10z m65 5 c0 -3 -2
-5 -5 -5 -3 0 -5 2 -5 5 0 3 2 5 5 5 3 0 5 -2 5 -5z m20 -10 c0 -3 -2 -5 -5
-5 -3 0 -5 2 -5 5 0 3 2 5 5 5 3 0 5 -2 5 -5z m45 -5 c3 -5 1 -10 -4 -10 -6 0
-11 5 -11 10 0 6 2 10 4 10 3 0 8 -4 11 -10z"/>
<path d="M4545 1080 c3 -5 8 -10 11 -10 3 0 2 5 -1 10 -3 6 -8 10 -11 10 -3 0
-2 -4 1 -10z"/>
<path d="M1718 860 c-24 -79 -24 -80 22 -80 22 0 40 4 40 8 0 8 -41 132 -43
132 -1 0 -10 -27 -19 -60z"/>
<path d="M3578 909 c-22 -13 -24 -62 -2 -80 34 -28 73 41 43 77 -13 16 -18 17
-41 3z"/>
<path d="M2186 828 c-34 -49 -11 -118 38 -118 32 0 51 26 51 70 0 66 -56 96
-89 48z"/>
<path d="M3160 705 c0 -20 4 -26 18 -23 9 2 17 12 17 23 0 11 -8 21 -17 23
-14 3 -18 -3 -18 -23z"/>
<path d="M3395 697 c-4 -10 -5 -21 -1 -24 10 -10 18 4 13 24 -4 17 -4 17 -12
0z"/>
<path d="M3712 718 c-13 -13 -15 -37 -6 -62 9 -25 53 -20 63 7 17 47 -25 87
-57 55z"/>
<path d="M3840 711 c0 -16 6 -21 26 -21 33 0 30 33 -4 38 -17 3 -22 -2 -22
-17z"/>
<path d="M3180 2885 c0 -3 2 -5 5 -5 3 0 5 2 5 5 0 3 -2 5 -5 5 -3 0 -5 -2 -5
-5z"/>
<path d="M3200 2876 c0 -10 8 -16 22 -16 12 0 19 1 17 3 -2 1 -12 9 -21 16
-15 12 -18 11 -18 -3z"/>
<path d="M3410 2885 c0 -3 2 -5 5 -5 3 0 5 2 5 5 0 3 -2 5 -5 5 -3 0 -5 -2 -5
-5z"/>
<path d="M5970 2875 c0 -3 2 -5 5 -5 3 0 5 2 5 5 0 3 -2 5 -5 5 -3 0 -5 -2 -5
-5z"/>
<path d="M2690 2865 c0 -3 2 -5 5 -5 3 0 5 2 5 5 0 3 -2 5 -5 5 -3 0 -5 -2 -5
-5z"/>
<path d="M2753 2863 c4 -3 10 -3 14 0 3 4 0 7 -7 7 -7 0 -10 -3 -7 -7z"/>
<path d="M2860 2865 c0 -3 2 -5 5 -5 3 0 5 2 5 5 0 3 -2 5 -5 5 -3 0 -5 -2 -5
-5z"/>
<path d="M2920 2865 c0 -3 2 -5 5 -5 3 0 5 2 5 5 0 3 -2 5 -5 5 -3 0 -5 -2 -5
-5z"/>
<path d="M3300 2855 c0 -3 2 -5 5 -5 3 0 5 2 5 5 0 3 -2 5 -5 5 -3 0 -5 -2 -5
-5z"/>
<path d="M3360 2855 c0 -3 2 -5 5 -5 3 0 5 2 5 5 0 3 -2 5 -5 5 -3 0 -5 -2 -5
-5z"/>
<path d="M2690 2845 c0 -3 2 -5 5 -5 3 0 5 2 5 5 0 3 -2 5 -5 5 -3 0 -5 -2 -5
-5z"/>
<path d="M2610 2835 c0 -3 2 -5 5 -5 3 0 5 2 5 5 0 3 -2 5 -5 5 -3 0 -5 -2 -5
-5z"/>
<path d="M2730 2835 c0 -3 2 -5 5 -5 3 0 5 2 5 5 0 3 -2 5 -5 5 -3 0 -5 -2 -5
-5z"/>
<path d="M2760 2830 c0 -5 5 -10 11 -10 5 0 7 5 4 10 -3 6 -8 10 -11 10 -2 0
-4 -4 -4 -10z"/>
<path d="M5990 2835 c0 -3 2 -5 5 -5 3 0 5 2 5 5 0 3 -2 5 -5 5 -3 0 -5 -2 -5
-5z"/>
<path d="M2680 2815 c0 -3 2 -5 5 -5 3 0 5 2 5 5 0 3 -2 5 -5 5 -3 0 -5 -2 -5
-5z"/>
<path d="M5970 2805 c0 -3 2 -5 5 -5 3 0 5 2 5 5 0 3 -2 5 -5 5 -3 0 -5 -2 -5
-5z"/>
<path d="M3435 2790 c3 -5 8 -10 11 -10 3 0 2 5 -1 10 -3 6 -8 10 -11 10 -3 0
-2 -4 1 -10z"/>
<path d="M2540 2785 c0 -3 2 -5 5 -5 3 0 5 2 5 5 0 3 -2 5 -5 5 -3 0 -5 -2 -5
-5z"/>
<path d="M2590 2785 c0 -3 2 -5 5 -5 3 0 5 2 5 5 0 3 -2 5 -5 5 -3 0 -5 -2 -5
-5z"/>
<path d="M3468 2783 c7 -3 16 -2 19 1 4 3 -2 6 -13 5 -11 0 -14 -3 -6 -6z"/>
<path d="M3590 2785 c0 -3 2 -5 5 -5 3 0 5 2 5 5 0 3 -2 5 -5 5 -3 0 -5 -2 -5
-5z"/>
<path d="M2640 2770 c-13 -8 -12 -10 3 -10 9 0 17 5 17 10 0 12 -1 12 -20 0z"/>
<path d="M3500 2775 c0 -3 2 -5 5 -5 3 0 5 2 5 5 0 3 -2 5 -5 5 -3 0 -5 -2 -5
-5z"/>
<path d="M2520 2765 c0 -3 2 -5 5 -5 3 0 5 2 5 5 0 3 -2 5 -5 5 -3 0 -5 -2 -5
-5z"/>
<path d="M4120 2765 c0 -3 2 -5 5 -5 3 0 5 2 5 5 0 3 -2 5 -5 5 -3 0 -5 -2 -5
-5z"/>
<path d="M2580 2750 c0 -7 3 -10 7 -7 3 4 3 10 0 14 -4 3 -7 0 -7 -7z"/>
<path d="M2600 2755 c0 -3 2 -5 5 -5 3 0 5 2 5 5 0 3 -2 5 -5 5 -3 0 -5 -2 -5
-5z"/>
<path d="M3620 2755 c0 -3 2 -5 5 -5 3 0 5 2 5 5 0 3 -2 5 -5 5 -3 0 -5 -2 -5
-5z"/>
<path d="M3570 2735 c0 -3 2 -5 5 -5 3 0 5 2 5 5 0 3 -2 5 -5 5 -3 0 -5 -2 -5
-5z"/>
<path d="M4400 2735 c0 -3 2 -5 5 -5 3 0 5 2 5 5 0 3 -2 5 -5 5 -3 0 -5 -2 -5
-5z"/>
<path d="M2560 2725 c0 -3 2 -5 5 -5 3 0 5 2 5 5 0 3 -2 5 -5 5 -3 0 -5 -2 -5
-5z"/>
<path d="M3590 2720 c0 -7 3 -10 7 -7 3 4 3 10 0 14 -4 3 -7 0 -7 -7z"/>
<path d="M3630 2715 c0 -3 2 -5 5 -5 3 0 5 2 5 5 0 3 -2 5 -5 5 -3 0 -5 -2 -5
-5z"/>
<path d="M2490 2685 c0 -3 2 -5 5 -5 3 0 5 2 5 5 0 3 -2 5 -5 5 -3 0 -5 -2 -5
-5z"/>
<path d="M3670 2655 c0 -3 2 -5 5 -5 3 0 5 2 5 5 0 3 -2 5 -5 5 -3 0 -5 -2 -5
-5z"/>
<path d="M4010 2605 c0 -3 2 -5 5 -5 3 0 5 2 5 5 0 3 -2 5 -5 5 -3 0 -5 -2 -5
-5z"/>
<path d="M3750 2595 c0 -3 2 -5 5 -5 3 0 5 2 5 5 0 3 -2 5 -5 5 -3 0 -5 -2 -5
-5z"/>
<path d="M2320 2585 c0 -3 2 -5 5 -5 3 0 5 2 5 5 0 3 -2 5 -5 5 -3 0 -5 -2 -5
-5z"/>
<path d="M2380 2565 c0 -3 2 -5 5 -5 3 0 5 2 5 5 0 3 -2 5 -5 5 -3 0 -5 -2 -5
-5z"/>
<path d="M4390 2565 c0 -3 2 -5 5 -5 3 0 5 2 5 5 0 3 -2 5 -5 5 -3 0 -5 -2 -5
-5z"/>
<path d="M2070 2555 c0 -3 2 -5 5 -5 3 0 5 2 5 5 0 3 -2 5 -5 5 -3 0 -5 -2 -5
-5z"/>
<path d="M260 2525 c0 -3 2 -5 5 -5 3 0 5 2 5 5 0 3 -2 5 -5 5 -3 0 -5 -2 -5
-5z"/>
<path d="M5980 2515 c0 -3 2 -5 5 -5 3 0 5 2 5 5 0 3 -2 5 -5 5 -3 0 -5 -2 -5
-5z"/>
<path d="M2250 2495 c0 -3 2 -5 5 -5 3 0 5 2 5 5 0 3 -2 5 -5 5 -3 0 -5 -2 -5
-5z"/>
<path d="M3810 2485 c0 -3 2 -5 5 -5 3 0 5 2 5 5 0 3 -2 5 -5 5 -3 0 -5 -2 -5
-5z"/>
<path d="M3840 2485 c0 -3 2 -5 5 -5 3 0 5 2 5 5 0 3 -2 5 -5 5 -3 0 -5 -2 -5
-5z"/>
<path d="M3860 2470 c0 -7 3 -10 7 -7 3 4 3 10 0 14 -4 3 -7 0 -7 -7z"/>
<path d="M2287 2459 c7 -7 15 -10 18 -7 3 3 -2 9 -12 12 -14 6 -15 5 -6 -5z"/>
<path d="M780 2455 c0 -3 2 -5 5 -5 3 0 5 2 5 5 0 3 -2 5 -5 5 -3 0 -5 -2 -5
-5z"/>
<path d="M4390 2445 c0 -3 2 -5 5 -5 3 0 5 2 5 5 0 3 -2 5 -5 5 -3 0 -5 -2 -5
-5z"/>
<path d="M2230 2425 c0 -3 2 -5 5 -5 3 0 5 2 5 5 0 3 -2 5 -5 5 -3 0 -5 -2 -5
-5z"/>
<path d="M3850 2420 c0 -7 3 -10 7 -7 3 4 3 10 0 14 -4 3 -7 0 -7 -7z"/>
<path d="M2260 2405 c0 -3 2 -5 5 -5 3 0 5 2 5 5 0 3 -2 5 -5 5 -3 0 -5 -2 -5
-5z"/>
<path d="M2170 2395 c0 -3 2 -5 5 -5 3 0 5 2 5 5 0 3 -2 5 -5 5 -3 0 -5 -2 -5
-5z"/>
<path d="M2234 2358 c-4 -7 -3 -8 4 -4 12 7 16 16 8 16 -3 0 -8 -5 -12 -12z"/>
<path d="M2210 2355 c0 -3 2 -5 5 -5 3 0 5 2 5 5 0 3 -2 5 -5 5 -3 0 -5 -2 -5
-5z"/>
<path d="M3870 2355 c0 -3 2 -5 5 -5 3 0 5 2 5 5 0 3 -2 5 -5 5 -3 0 -5 -2 -5
-5z"/>
<path d="M3935 2290 c3 -5 8 -10 11 -10 3 0 2 5 -1 10 -3 6 -8 10 -11 10 -3 0
-2 -4 1 -10z"/>
<path d="M2150 2225 c0 -3 2 -5 5 -5 3 0 5 2 5 5 0 3 -2 5 -5 5 -3 0 -5 -2 -5
-5z"/>
<path d="M3950 2215 c0 -3 2 -5 5 -5 3 0 5 2 5 5 0 3 -2 5 -5 5 -3 0 -5 -2 -5
-5z"/>
<path d="M4980 2205 c0 -3 2 -5 5 -5 3 0 5 2 5 5 0 3 -2 5 -5 5 -3 0 -5 -2 -5
-5z"/>
<path d="M2160 2185 c0 -3 2 -5 5 -5 3 0 5 2 5 5 0 3 -2 5 -5 5 -3 0 -5 -2 -5
-5z"/>
<path d="M3970 2185 c0 -3 2 -5 5 -5 3 0 5 2 5 5 0 3 -2 5 -5 5 -3 0 -5 -2 -5
-5z"/>
<path d="M5240 2185 c0 -3 2 -5 5 -5 3 0 5 2 5 5 0 3 -2 5 -5 5 -3 0 -5 -2 -5
-5z"/>
<path d="M3975 2150 c3 -5 8 -10 11 -10 3 0 2 5 -1 10 -3 6 -8 10 -11 10 -3 0
-2 -4 1 -10z"/>
<path d="M3980 2120 c0 -7 3 -10 7 -7 3 4 3 10 0 14 -4 3 -7 0 -7 -7z"/>
<path d="M4000 2120 c0 -7 3 -10 7 -7 3 4 3 10 0 14 -4 3 -7 0 -7 -7z"/>
<path d="M1500 2075 c0 -3 2 -5 5 -5 3 0 5 2 5 5 0 3 -2 5 -5 5 -3 0 -5 -2 -5
-5z"/>
<path d="M2130 2045 c0 -3 2 -5 5 -5 3 0 5 2 5 5 0 3 -2 5 -5 5 -3 0 -5 -2 -5
-5z"/>
<path d="M1970 2035 c0 -3 2 -5 5 -5 3 0 5 2 5 5 0 3 -2 5 -5 5 -3 0 -5 -2 -5
-5z"/>
<path d="M1020 2025 c0 -3 2 -5 5 -5 3 0 5 2 5 5 0 3 -2 5 -5 5 -3 0 -5 -2 -5
-5z"/>
<path d="M5960 2025 c0 -3 2 -5 5 -5 3 0 5 2 5 5 0 3 -2 5 -5 5 -3 0 -5 -2 -5
-5z"/>
<path d="M2080 2015 c0 -3 2 -5 5 -5 3 0 5 2 5 5 0 3 -2 5 -5 5 -3 0 -5 -2 -5
-5z"/>
<path d="M4060 2015 c0 -3 2 -5 5 -5 3 0 5 2 5 5 0 3 -2 5 -5 5 -3 0 -5 -2 -5
-5z"/>
<path d="M4050 1955 c0 -3 2 -5 5 -5 3 0 5 2 5 5 0 3 -2 5 -5 5 -3 0 -5 -2 -5
-5z"/>
<path d="M4080 1955 c0 -3 2 -5 5 -5 3 0 5 2 5 5 0 3 -2 5 -5 5 -3 0 -5 -2 -5
-5z"/>
<path d="M5280 1955 c0 -3 2 -5 5 -5 3 0 5 2 5 5 0 3 -2 5 -5 5 -3 0 -5 -2 -5
-5z"/>
<path d="M330 1945 c0 -3 2 -5 5 -5 3 0 5 2 5 5 0 3 -2 5 -5 5 -3 0 -5 -2 -5
-5z"/>
<path d="M2090 1925 c0 -3 2 -5 5 -5 3 0 5 2 5 5 0 3 -2 5 -5 5 -3 0 -5 -2 -5
-5z"/>
<path d="M4070 1915 c0 -3 2 -5 5 -5 3 0 5 2 5 5 0 3 -2 5 -5 5 -3 0 -5 -2 -5
-5z"/>
<path d="M2083 1893 c4 -3 10 -3 14 0 3 4 0 7 -7 7 -7 0 -10 -3 -7 -7z"/>
<path d="M4025 1881 c-3 -5 -1 -13 5 -16 8 -5 7 -12 -2 -23 -12 -15 -11 -16 5
-3 9 7 17 22 17 32 0 20 -15 26 -25 10z m15 -6 c0 -3 -2 -5 -5 -5 -3 0 -5 2
-5 5 0 3 2 5 5 5 3 0 5 -2 5 -5z"/>
<path d="M2060 1865 c0 -3 2 -5 5 -5 3 0 5 2 5 5 0 3 -2 5 -5 5 -3 0 -5 -2 -5
-5z"/>
<path d="M2106 1855 c4 -8 11 -15 16 -15 6 0 5 6 -2 15 -7 8 -14 15 -16 15 -2
0 -1 -7 2 -15z"/>
<path d="M2060 1835 c0 -3 2 -5 5 -5 3 0 5 2 5 5 0 3 -2 5 -5 5 -3 0 -5 -2 -5
-5z"/>
<path d="M1140 1825 c0 -3 2 -5 5 -5 3 0 5 2 5 5 0 3 -2 5 -5 5 -3 0 -5 -2 -5
-5z"/>
<path d="M5830 1825 c0 -3 2 -5 5 -5 3 0 5 2 5 5 0 3 -2 5 -5 5 -3 0 -5 -2 -5
-5z"/>
<path d="M5920 1825 c0 -3 2 -5 5 -5 3 0 5 2 5 5 0 3 -2 5 -5 5 -3 0 -5 -2 -5
-5z"/>
<path d="M4003 1813 c4 -3 10 -3 14 0 3 4 0 7 -7 7 -7 0 -10 -3 -7 -7z"/>
<path d="M4200 1815 c0 -3 2 -5 5 -5 3 0 5 2 5 5 0 3 -2 5 -5 5 -3 0 -5 -2 -5
-5z"/>
<path d="M4010 1735 c0 -3 2 -5 5 -5 3 0 5 2 5 5 0 3 -2 5 -5 5 -3 0 -5 -2 -5
-5z"/>
<path d="M2190 1725 c0 -3 2 -5 5 -5 3 0 5 2 5 5 0 3 -2 5 -5 5 -3 0 -5 -2 -5
-5z"/>
<path d="M360 1715 c0 -3 2 -5 5 -5 3 0 5 2 5 5 0 3 -2 5 -5 5 -3 0 -5 -2 -5
-5z"/>
<path d="M3980 1705 c0 -3 2 -5 5 -5 3 0 5 2 5 5 0 3 -2 5 -5 5 -3 0 -5 -2 -5
-5z"/>
<path d="M4020 1685 c0 -3 2 -5 5 -5 3 0 5 2 5 5 0 3 -2 5 -5 5 -3 0 -5 -2 -5
-5z"/>
<path d="M5810 1685 c0 -3 2 -5 5 -5 3 0 5 2 5 5 0 3 -2 5 -5 5 -3 0 -5 -2 -5
-5z"/>
<path d="M5980 1675 c0 -3 2 -5 5 -5 3 0 5 2 5 5 0 3 -2 5 -5 5 -3 0 -5 -2 -5
-5z"/>
<path d="M2170 1665 c0 -3 2 -5 5 -5 3 0 5 2 5 5 0 3 -2 5 -5 5 -3 0 -5 -2 -5
-5z"/>
<path d="M3920 1659 c0 -5 5 -7 10 -4 6 3 10 8 10 11 0 2 -4 4 -10 4 -5 0 -10
-5 -10 -11z"/>
<path d="M5880 1665 c0 -3 2 -5 5 -5 3 0 5 2 5 5 0 3 -2 5 -5 5 -3 0 -5 -2 -5
-5z"/>
<path d="M4275 1650 c3 -5 8 -10 11 -10 3 0 2 5 -1 10 -3 6 -8 10 -11 10 -3 0
-2 -4 1 -10z"/>
<path d="M2190 1645 c0 -3 2 -5 5 -5 3 0 5 2 5 5 0 3 -2 5 -5 5 -3 0 -5 -2 -5
-5z"/>
<path d="M3920 1615 c0 -3 2 -5 5 -5 3 0 5 2 5 5 0 3 -2 5 -5 5 -3 0 -5 -2 -5
-5z"/>
<path d="M300 1605 c0 -3 2 -5 5 -5 3 0 5 2 5 5 0 3 -2 5 -5 5 -3 0 -5 -2 -5
-5z"/>
<path d="M3900 1605 c0 -3 2 -5 5 -5 3 0 5 2 5 5 0 3 -2 5 -5 5 -3 0 -5 -2 -5
-5z"/>
<path d="M4013 1603 c4 -3 10 -3 14 0 3 4 0 7 -7 7 -7 0 -10 -3 -7 -7z"/>
<path d="M4050 1605 c0 -3 2 -5 5 -5 3 0 5 2 5 5 0 3 -2 5 -5 5 -3 0 -5 -2 -5
-5z"/>
<path d="M5360 1585 c0 -3 2 -5 5 -5 3 0 5 2 5 5 0 3 -2 5 -5 5 -3 0 -5 -2 -5
-5z"/>
<path d="M4030 1575 c0 -3 2 -5 5 -5 3 0 5 2 5 5 0 3 -2 5 -5 5 -3 0 -5 -2 -5
-5z"/>
<path d="M360 1555 c0 -3 2 -5 5 -5 3 0 5 2 5 5 0 3 -2 5 -5 5 -3 0 -5 -2 -5
-5z"/>
<path d="M2170 1545 c0 -3 2 -5 5 -5 3 0 5 2 5 5 0 3 -2 5 -5 5 -3 0 -5 -2 -5
-5z"/>
<path d="M3880 1535 c0 -3 2 -5 5 -5 3 0 5 2 5 5 0 3 -2 5 -5 5 -3 0 -5 -2 -5
-5z"/>
<path d="M2230 1515 c0 -3 2 -5 5 -5 3 0 5 2 5 5 0 3 -2 5 -5 5 -3 0 -5 -2 -5
-5z"/>
<path d="M3910 1515 c0 -3 2 -5 5 -5 3 0 5 2 5 5 0 3 -2 5 -5 5 -3 0 -5 -2 -5
-5z"/>
<path d="M3870 1505 c0 -3 2 -5 5 -5 3 0 5 2 5 5 0 3 -2 5 -5 5 -3 0 -5 -2 -5
-5z"/>
<path d="M2170 1495 c0 -3 2 -5 5 -5 3 0 5 2 5 5 0 3 -2 5 -5 5 -3 0 -5 -2 -5
-5z"/>
<path d="M2240 1495 c0 -3 2 -5 5 -5 3 0 5 2 5 5 0 3 -2 5 -5 5 -3 0 -5 -2 -5
-5z"/>
<path d="M4050 1485 c0 -3 2 -5 5 -5 3 0 5 2 5 5 0 3 -2 5 -5 5 -3 0 -5 -2 -5
-5z"/>
<path d="M4030 1475 c0 -3 2 -5 5 -5 3 0 5 2 5 5 0 3 -2 5 -5 5 -3 0 -5 -2 -5
-5z"/>
<path d="M4020 1455 c0 -3 2 -5 5 -5 3 0 5 2 5 5 0 3 -2 5 -5 5 -3 0 -5 -2 -5
-5z"/>
<path d="M3910 1445 c0 -3 2 -5 5 -5 3 0 5 2 5 5 0 3 -2 5 -5 5 -3 0 -5 -2 -5
-5z"/>
<path d="M3960 1445 c0 -3 2 -5 5 -5 3 0 5 2 5 5 0 3 -2 5 -5 5 -3 0 -5 -2 -5
-5z"/>
<path d="M620 1435 c0 -3 2 -5 5 -5 3 0 5 2 5 5 0 3 -2 5 -5 5 -3 0 -5 -2 -5
-5z"/>
<path d="M2090 1435 c0 -3 2 -5 5 -5 3 0 5 2 5 5 0 3 -2 5 -5 5 -3 0 -5 -2 -5
-5z"/>
<path d="M2200 1435 c0 -3 2 -5 5 -5 3 0 5 2 5 5 0 3 -2 5 -5 5 -3 0 -5 -2 -5
-5z"/>
<path d="M2220 1435 c0 -3 2 -5 5 -5 3 0 5 2 5 5 0 3 -2 5 -5 5 -3 0 -5 -2 -5
-5z"/>
<path d="M5980 1435 c0 -3 2 -5 5 -5 3 0 5 2 5 5 0 3 -2 5 -5 5 -3 0 -5 -2 -5
-5z"/>
<path d="M2320 1415 c0 -3 2 -5 5 -5 3 0 5 2 5 5 0 3 -2 5 -5 5 -3 0 -5 -2 -5
-5z"/>
<path d="M2090 1405 c0 -3 2 -5 5 -5 3 0 5 2 5 5 0 3 -2 5 -5 5 -3 0 -5 -2 -5
-5z"/>
<path d="M4030 1405 c0 -3 2 -5 5 -5 3 0 5 2 5 5 0 3 -2 5 -5 5 -3 0 -5 -2 -5
-5z"/>
<path d="M3890 1395 c0 -3 2 -5 5 -5 3 0 5 2 5 5 0 3 -2 5 -5 5 -3 0 -5 -2 -5
-5z"/>
<path d="M3870 1385 c0 -3 2 -5 5 -5 3 0 5 2 5 5 0 3 -2 5 -5 5 -3 0 -5 -2 -5
-5z"/>
<path d="M3980 1375 c0 -3 2 -5 5 -5 3 0 5 2 5 5 0 3 -2 5 -5 5 -3 0 -5 -2 -5
-5z"/>
<path d="M2363 1363 c4 -3 10 -3 14 0 3 4 0 7 -7 7 -7 0 -10 -3 -7 -7z"/>
<path d="M3783 1363 c4 -3 10 -3 14 0 3 4 0 7 -7 7 -7 0 -10 -3 -7 -7z"/>
<path d="M2290 1355 c0 -3 2 -5 5 -5 3 0 5 2 5 5 0 3 -2 5 -5 5 -3 0 -5 -2 -5
-5z"/>
<path d="M5220 1355 c0 -3 2 -5 5 -5 3 0 5 2 5 5 0 3 -2 5 -5 5 -3 0 -5 -2 -5
-5z"/>
<path d="M3970 1335 c0 -3 2 -5 5 -5 3 0 5 2 5 5 0 3 -2 5 -5 5 -3 0 -5 -2 -5
-5z"/>
<path d="M4010 1330 c0 -7 3 -10 7 -7 3 4 3 10 0 14 -4 3 -7 0 -7 -7z"/>
<path d="M2160 1325 c0 -3 2 -5 5 -5 3 0 5 2 5 5 0 3 -2 5 -5 5 -3 0 -5 -2 -5
-5z"/>
<path d="M2250 1325 c0 -3 2 -5 5 -5 3 0 5 2 5 5 0 3 -2 5 -5 5 -3 0 -5 -2 -5
-5z"/>
<path d="M3730 1325 c0 -3 2 -5 5 -5 3 0 5 2 5 5 0 3 -2 5 -5 5 -3 0 -5 -2 -5
-5z"/>
<path d="M4040 1325 c0 -3 2 -5 5 -5 3 0 5 2 5 5 0 3 -2 5 -5 5 -3 0 -5 -2 -5
-5z"/>
<path d="M3880 1315 c0 -3 2 -5 5 -5 3 0 5 2 5 5 0 3 -2 5 -5 5 -3 0 -5 -2 -5
-5z"/>
<path d="M1710 1305 c0 -3 2 -5 5 -5 3 0 5 2 5 5 0 3 -2 5 -5 5 -3 0 -5 -2 -5
-5z"/>
<path d="M3870 1295 c0 -3 2 -5 5 -5 3 0 5 2 5 5 0 3 -2 5 -5 5 -3 0 -5 -2 -5
-5z"/>
<path d="M1660 1285 c0 -3 2 -5 5 -5 3 0 5 2 5 5 0 3 -2 5 -5 5 -3 0 -5 -2 -5
-5z"/>
<path d="M1740 1285 c0 -3 2 -5 5 -5 3 0 5 2 5 5 0 3 -2 5 -5 5 -3 0 -5 -2 -5
-5z"/>
<path d="M2210 1285 c0 -3 2 -5 5 -5 3 0 5 2 5 5 0 3 -2 5 -5 5 -3 0 -5 -2 -5
-5z"/>
<path d="M3705 1280 c4 -6 11 -8 16 -5 14 9 11 15 -7 15 -8 0 -12 -5 -9 -10z"/>
<path d="M2150 1275 c0 -3 2 -5 5 -5 3 0 5 2 5 5 0 3 -2 5 -5 5 -3 0 -5 -2 -5
-5z"/>
<path d="M4010 1275 c0 -3 2 -5 5 -5 3 0 5 2 5 5 0 3 -2 5 -5 5 -3 0 -5 -2 -5
-5z"/>
<path d="M2360 1265 c0 -3 2 -5 5 -5 3 0 5 2 5 5 0 3 -2 5 -5 5 -3 0 -5 -2 -5
-5z"/>
<path d="M320 1255 c0 -3 2 -5 5 -5 3 0 5 2 5 5 0 3 -2 5 -5 5 -3 0 -5 -2 -5
-5z"/>
<path d="M3780 1255 c0 -3 2 -5 5 -5 3 0 5 2 5 5 0 3 -2 5 -5 5 -3 0 -5 -2 -5
-5z"/>
<path d="M3800 1255 c0 -3 2 -5 5 -5 3 0 5 2 5 5 0 3 -2 5 -5 5 -3 0 -5 -2 -5
-5z"/>
<path d="M4360 1255 c0 -3 2 -5 5 -5 3 0 5 2 5 5 0 3 -2 5 -5 5 -3 0 -5 -2 -5
-5z"/>
<path d="M2020 1245 c0 -3 2 -5 5 -5 3 0 5 2 5 5 0 3 -2 5 -5 5 -3 0 -5 -2 -5
-5z"/>
<path d="M2180 1245 c0 -3 2 -5 5 -5 3 0 5 2 5 5 0 3 -2 5 -5 5 -3 0 -5 -2 -5
-5z"/>
<path d="M2260 1245 c0 -3 2 -5 5 -5 3 0 5 2 5 5 0 3 -2 5 -5 5 -3 0 -5 -2 -5
-5z"/>
<path d="M2280 1245 c0 -3 2 -5 5 -5 3 0 5 2 5 5 0 3 -2 5 -5 5 -3 0 -5 -2 -5
-5z"/>
<path d="M3710 1245 c0 -3 2 -5 5 -5 3 0 5 2 5 5 0 3 -2 5 -5 5 -3 0 -5 -2 -5
-5z"/>
<path d="M1590 1235 c0 -3 2 -5 5 -5 3 0 5 2 5 5 0 3 -2 5 -5 5 -3 0 -5 -2 -5
-5z"/>
<path d="M1930 1235 c0 -3 2 -5 5 -5 3 0 5 2 5 5 0 3 -2 5 -5 5 -3 0 -5 -2 -5
-5z"/>
<path d="M2490 1235 c0 -3 2 -5 5 -5 3 0 5 2 5 5 0 3 -2 5 -5 5 -3 0 -5 -2 -5
-5z"/>
<path d="M3744 1228 c-4 -7 -3 -8 4 -4 12 7 16 16 8 16 -3 0 -8 -5 -12 -12z"/>
<path d="M3773 1233 c4 -3 10 -3 14 0 3 4 0 7 -7 7 -7 0 -10 -3 -7 -7z"/>
<path d="M980 1225 c0 -3 2 -5 5 -5 3 0 5 2 5 5 0 3 -2 5 -5 5 -3 0 -5 -2 -5
-5z"/>
<path d="M1660 1225 c0 -3 2 -5 5 -5 3 0 5 2 5 5 0 3 -2 5 -5 5 -3 0 -5 -2 -5
-5z"/>
<path d="M2100 1225 c0 -3 2 -5 5 -5 3 0 5 2 5 5 0 3 -2 5 -5 5 -3 0 -5 -2 -5
-5z"/>
<path d="M2380 1225 c0 -3 2 -5 5 -5 3 0 5 2 5 5 0 3 -2 5 -5 5 -3 0 -5 -2 -5
-5z"/>
<path d="M3980 1225 c0 -3 2 -5 5 -5 3 0 5 2 5 5 0 3 -2 5 -5 5 -3 0 -5 -2 -5
-5z"/>
<path d="M1640 1215 c0 -3 2 -5 5 -5 3 0 5 2 5 5 0 3 -2 5 -5 5 -3 0 -5 -2 -5
-5z"/>
<path d="M1762 1215 c21 -17 47 -23 51 -12 3 8 -6 12 -25 13 -15 1 -27 0 -26
-1z"/>
<path d="M1893 1213 c4 -3 10 -3 14 0 3 4 0 7 -7 7 -7 0 -10 -3 -7 -7z"/>
<path d="M2120 1209 c0 -5 5 -7 10 -4 6 3 10 8 10 11 0 2 -4 4 -10 4 -5 0 -10
-5 -10 -11z"/>
<path d="M2250 1215 c0 -3 2 -5 5 -5 3 0 5 2 5 5 0 3 -2 5 -5 5 -3 0 -5 -2 -5
-5z"/>
<path d="M2300 1215 c0 -3 2 -5 5 -5 3 0 5 2 5 5 0 3 -2 5 -5 5 -3 0 -5 -2 -5
-5z"/>
<path d="M2430 1215 c0 -3 2 -5 5 -5 3 0 5 2 5 5 0 3 -2 5 -5 5 -3 0 -5 -2 -5
-5z"/>
<path d="M3720 1215 c0 -3 2 -5 5 -5 3 0 5 2 5 5 0 3 -2 5 -5 5 -3 0 -5 -2 -5
-5z"/>
<path d="M3864 1208 c-4 -7 -3 -8 4 -4 12 7 16 16 8 16 -3 0 -8 -5 -12 -12z"/>
<path d="M3940 1210 c0 -7 3 -10 7 -7 3 4 3 10 0 14 -4 3 -7 0 -7 -7z"/>
<path d="M4130 1215 c0 -3 2 -5 5 -5 3 0 5 2 5 5 0 3 -2 5 -5 5 -3 0 -5 -2 -5
-5z"/>
<path d="M4280 1215 c0 -3 2 -5 5 -5 3 0 5 2 5 5 0 3 -2 5 -5 5 -3 0 -5 -2 -5
-5z"/>
<path d="M4713 1213 c4 -3 10 -3 14 0 3 4 0 7 -7 7 -7 0 -10 -3 -7 -7z"/>
<path d="M4860 1215 c0 -3 2 -5 5 -5 3 0 5 2 5 5 0 3 -2 5 -5 5 -3 0 -5 -2 -5
-5z"/>
<path d="M2164 1198 c-4 -7 -3 -8 4 -4 12 7 16 16 8 16 -3 0 -8 -5 -12 -12z"/>
<path d="M2450 1205 c0 -3 2 -5 5 -5 3 0 5 2 5 5 0 3 -2 5 -5 5 -3 0 -5 -2 -5
-5z"/>
<path d="M3670 1205 c0 -3 2 -5 5 -5 3 0 5 2 5 5 0 3 -2 5 -5 5 -3 0 -5 -2 -5
-5z"/>
<path d="M3983 1203 c4 -3 10 -3 14 0 3 4 0 7 -7 7 -7 0 -10 -3 -7 -7z"/>
<path d="M4520 1205 c0 -3 2 -5 5 -5 3 0 5 2 5 5 0 3 -2 5 -5 5 -3 0 -5 -2 -5
-5z"/>
<path d="M1580 1195 c0 -3 2 -5 5 -5 3 0 5 2 5 5 0 3 -2 5 -5 5 -3 0 -5 -2 -5
-5z"/>
<path d="M1980 1195 c0 -3 2 -5 5 -5 3 0 5 2 5 5 0 3 -2 5 -5 5 -3 0 -5 -2 -5
-5z"/>
<path d="M2380 1195 c0 -3 2 -5 5 -5 3 0 5 2 5 5 0 3 -2 5 -5 5 -3 0 -5 -2 -5
-5z"/>
<path d="M2430 1195 c0 -3 2 -5 5 -5 3 0 5 2 5 5 0 3 -2 5 -5 5 -3 0 -5 -2 -5
-5z"/>
<path d="M2470 1195 c0 -3 2 -5 5 -5 3 0 5 2 5 5 0 3 -2 5 -5 5 -3 0 -5 -2 -5
-5z"/>
<path d="M2508 1193 c6 -2 12 -11 12 -18 0 -7 7 -15 15 -19 8 -3 15 -2 15 3 0
11 -34 41 -46 40 -5 0 -3 -3 4 -6z"/>
<path d="M3745 1190 c3 -5 8 -10 11 -10 3 0 2 5 -1 10 -3 6 -8 10 -11 10 -3 0
-2 -4 1 -10z"/>
<path d="M3840 1195 c0 -3 2 -5 5 -5 3 0 5 2 5 5 0 3 -2 5 -5 5 -3 0 -5 -2 -5
-5z"/>
<path d="M3890 1195 c0 -3 2 -5 5 -5 3 0 5 2 5 5 0 3 -2 5 -5 5 -3 0 -5 -2 -5
-5z"/>
<path d="M4010 1195 c0 -3 2 -5 5 -5 3 0 5 2 5 5 0 3 -2 5 -5 5 -3 0 -5 -2 -5
-5z"/>
<path d="M4070 1195 c0 -3 2 -5 5 -5 3 0 5 2 5 5 0 3 -2 5 -5 5 -3 0 -5 -2 -5
-5z"/>
<path d="M4210 1195 c0 -3 2 -5 5 -5 3 0 5 2 5 5 0 3 -2 5 -5 5 -3 0 -5 -2 -5
-5z"/>
<path d="M4470 1195 c0 -3 2 -5 5 -5 3 0 5 2 5 5 0 3 -2 5 -5 5 -3 0 -5 -2 -5
-5z"/>
<path d="M2439 1173 c-13 -16 -12 -17 4 -4 16 13 21 21 13 21 -2 0 -10 -8 -17
-17z"/>
<path d="M3690 1185 c0 -3 2 -5 5 -5 3 0 5 2 5 5 0 3 -2 5 -5 5 -3 0 -5 -2 -5
-5z"/>
<path d="M2060 1175 c0 -3 2 -5 5 -5 3 0 5 2 5 5 0 3 -2 5 -5 5 -3 0 -5 -2 -5
-5z"/>
<path d="M2113 1173 c4 -3 10 -3 14 0 3 4 0 7 -7 7 -7 0 -10 -3 -7 -7z"/>
<path d="M2383 1173 c4 -3 10 -3 14 0 3 4 0 7 -7 7 -7 0 -10 -3 -7 -7z"/>
<path d="M1170 1165 c0 -3 2 -5 5 -5 3 0 5 2 5 5 0 3 -2 5 -5 5 -3 0 -5 -2 -5
-5z"/>
<path d="M1570 1165 c0 -3 2 -5 5 -5 3 0 5 2 5 5 0 3 -2 5 -5 5 -3 0 -5 -2 -5
-5z"/>
<path d="M2490 1165 c0 -3 2 -5 5 -5 3 0 5 2 5 5 0 3 -2 5 -5 5 -3 0 -5 -2 -5
-5z"/>
<path d="M3735 1160 c3 -5 8 -10 11 -10 3 0 2 5 -1 10 -3 6 -8 10 -11 10 -3 0
-2 -4 1 -10z"/>
<path d="M3840 1165 c0 -3 2 -5 5 -5 3 0 5 2 5 5 0 3 -2 5 -5 5 -3 0 -5 -2 -5
-5z"/>
<path d="M2350 1155 c0 -3 2 -5 5 -5 3 0 5 2 5 5 0 3 -2 5 -5 5 -3 0 -5 -2 -5
-5z"/>
<path d="M2400 1155 c0 -3 2 -5 5 -5 3 0 5 2 5 5 0 3 -2 5 -5 5 -3 0 -5 -2 -5
-5z"/>
<path d="M3770 1155 c0 -3 2 -5 5 -5 3 0 5 2 5 5 0 3 -2 5 -5 5 -3 0 -5 -2 -5
-5z"/>
<path d="M4130 1155 c0 -3 2 -5 5 -5 3 0 5 2 5 5 0 3 -2 5 -5 5 -3 0 -5 -2 -5
-5z"/>
<path d="M4260 1155 c0 -3 2 -5 5 -5 3 0 5 2 5 5 0 3 -2 5 -5 5 -3 0 -5 -2 -5
-5z"/>
<path d="M4487 1154 c7 -3 9 -13 6 -22 -4 -14 -3 -14 5 -2 12 16 7 30 -11 29
-9 0 -9 -2 0 -5z"/>
<path d="M4540 1155 c0 -3 2 -5 5 -5 3 0 5 2 5 5 0 3 -2 5 -5 5 -3 0 -5 -2 -5
-5z"/>
<path d="M5410 1155 c0 -3 2 -5 5 -5 3 0 5 2 5 5 0 3 -2 5 -5 5 -3 0 -5 -2 -5
-5z"/>
<path d="M2096 1138 c3 -4 12 -8 20 -8 8 0 14 4 14 8 0 4 -9 8 -19 8 -11 0
-17 -4 -15 -8z"/>
<path d="M2233 1143 c4 -3 10 -3 14 0 3 4 0 7 -7 7 -7 0 -10 -3 -7 -7z"/>
<path d="M3655 1139 c4 -5 16 -9 27 -9 26 0 19 9 -11 15 -12 2 -19 0 -16 -6z"/>
<path d="M4045 1140 c3 -5 8 -10 11 -10 3 0 2 5 -1 10 -3 6 -8 10 -11 10 -3 0
-2 -4 1 -10z"/>
<path d="M2033 1133 c4 -3 10 -3 14 0 3 4 0 7 -7 7 -7 0 -10 -3 -7 -7z"/>
<path d="M2410 1135 c0 -3 2 -5 5 -5 3 0 5 2 5 5 0 3 -2 5 -5 5 -3 0 -5 -2 -5
-5z"/>
<path d="M3750 1135 c0 -3 2 -5 5 -5 3 0 5 2 5 5 0 3 -2 5 -5 5 -3 0 -5 -2 -5
-5z"/>
<path d="M3850 1135 c0 -3 2 -5 5 -5 3 0 5 2 5 5 0 3 -2 5 -5 5 -3 0 -5 -2 -5
-5z"/>
<path d="M3890 1135 c0 -3 2 -5 5 -5 3 0 5 2 5 5 0 3 -2 5 -5 5 -3 0 -5 -2 -5
-5z"/>
<path d="M3975 1130 c3 -5 8 -10 11 -10 2 0 4 5 4 10 0 6 -5 10 -11 10 -5 0
-7 -4 -4 -10z"/>
<path d="M4000 1132 c0 -5 7 -9 15 -9 8 0 12 4 9 9 -3 4 -9 8 -15 8 -5 0 -9
-4 -9 -8z"/>
<path d="M4140 1130 c0 -5 7 -7 15 -4 8 4 15 8 15 10 0 2 -7 4 -15 4 -8 0 -15
-4 -15 -10z"/>
<path d="M4205 1130 c-3 -5 -1 -10 4 -10 6 0 11 5 11 10 0 6 -2 10 -4 10 -3 0
-8 -4 -11 -10z"/>
<path d="M4243 1133 c4 -3 10 -3 14 0 3 4 0 7 -7 7 -7 0 -10 -3 -7 -7z"/>
<path d="M4290 1125 c0 -3 2 -5 5 -5 3 0 5 2 5 5 0 3 -2 5 -5 5 -3 0 -5 -2 -5
-5z"/>
<path d="M5690 1085 c0 -3 2 -5 5 -5 3 0 5 2 5 5 0 3 -2 5 -5 5 -3 0 -5 -2 -5
-5z"/>
<path d="M5140 1075 c0 -3 2 -5 5 -5 3 0 5 2 5 5 0 3 -2 5 -5 5 -3 0 -5 -2 -5
-5z"/>
<path d="M1130 1065 c0 -3 2 -5 5 -5 3 0 5 2 5 5 0 3 -2 5 -5 5 -3 0 -5 -2 -5
-5z"/>
<path d="M1460 1055 c0 -3 2 -5 5 -5 3 0 5 2 5 5 0 3 -2 5 -5 5 -3 0 -5 -2 -5
-5z"/>
<path d="M1450 1035 c0 -3 2 -5 5 -5 3 0 5 2 5 5 0 3 -2 5 -5 5 -3 0 -5 -2 -5
-5z"/>
<path d="M4930 1035 c0 -3 2 -5 5 -5 3 0 5 2 5 5 0 3 -2 5 -5 5 -3 0 -5 -2 -5
-5z"/>
<path d="M790 1025 c0 -3 2 -5 5 -5 3 0 5 2 5 5 0 3 -2 5 -5 5 -3 0 -5 -2 -5
-5z"/>
<path d="M840 1025 c0 -3 2 -5 5 -5 3 0 5 2 5 5 0 3 -2 5 -5 5 -3 0 -5 -2 -5
-5z"/>
<path d="M1430 1025 c0 -3 2 -5 5 -5 3 0 5 2 5 5 0 3 -2 5 -5 5 -3 0 -5 -2 -5
-5z"/>
<path d="M4760 1025 c0 -3 2 -5 5 -5 3 0 5 2 5 5 0 3 -2 5 -5 5 -3 0 -5 -2 -5
-5z"/>
<path d="M4680 1005 c0 -3 2 -5 5 -5 3 0 5 2 5 5 0 3 -2 5 -5 5 -3 0 -5 -2 -5
-5z"/>
<path d="M5400 1005 c0 -3 2 -5 5 -5 3 0 5 2 5 5 0 3 -2 5 -5 5 -3 0 -5 -2 -5
-5z"/>
<path d="M910 995 c0 -3 2 -5 5 -5 3 0 5 2 5 5 0 3 -2 5 -5 5 -3 0 -5 -2 -5
-5z"/>
<path d="M4700 995 c0 -3 2 -5 5 -5 3 0 5 2 5 5 0 3 -2 5 -5 5 -3 0 -5 -2 -5
-5z"/>
<path d="M5260 995 c0 -3 2 -5 5 -5 3 0 5 2 5 5 0 3 -2 5 -5 5 -3 0 -5 -2 -5
-5z"/>
<path d="M5720 995 c0 -3 2 -5 5 -5 3 0 5 2 5 5 0 3 -2 5 -5 5 -3 0 -5 -2 -5
-5z"/>
<path d="M4850 985 c0 -3 2 -5 5 -5 3 0 5 2 5 5 0 3 -2 5 -5 5 -3 0 -5 -2 -5
-5z"/>
<path d="M350 975 c0 -3 2 -5 5 -5 3 0 5 2 5 5 0 3 -2 5 -5 5 -3 0 -5 -2 -5
-5z"/>
<path d="M4690 945 c0 -3 2 -5 5 -5 3 0 5 2 5 5 0 3 -2 5 -5 5 -3 0 -5 -2 -5
-5z"/>
<path d="M4704 918 c-4 -7 -3 -8 4 -4 12 7 16 16 8 16 -3 0 -8 -5 -12 -12z"/>
<path d="M5180 925 c0 -3 2 -5 5 -5 3 0 5 2 5 5 0 3 -2 5 -5 5 -3 0 -5 -2 -5
-5z"/>
<path d="M5780 925 c0 -3 2 -5 5 -5 3 0 5 2 5 5 0 3 -2 5 -5 5 -3 0 -5 -2 -5
-5z"/>
<path d="M1360 915 c0 -3 2 -5 5 -5 3 0 5 2 5 5 0 3 -2 5 -5 5 -3 0 -5 -2 -5
-5z"/>
<path d="M4710 890 c0 -7 3 -10 7 -7 3 4 3 10 0 14 -4 3 -7 0 -7 -7z"/>
<path d="M1350 855 c0 -3 2 -5 5 -5 3 0 5 2 5 5 0 3 -2 5 -5 5 -3 0 -5 -2 -5
-5z"/>
<path d="M1380 834 c0 -8 5 -12 10 -9 6 3 10 10 10 16 0 5 -4 9 -10 9 -5 0
-10 -7 -10 -16z"/>
<path d="M5930 845 c0 -3 2 -5 5 -5 3 0 5 2 5 5 0 3 -2 5 -5 5 -3 0 -5 -2 -5
-5z"/>
<path d="M4680 765 c0 -3 2 -5 5 -5 3 0 5 2 5 5 0 3 -2 5 -5 5 -3 0 -5 -2 -5
-5z"/>
<path d="M4634 738 l-19 -23 23 19 c21 18 27 26 19 26 -2 0 -12 -10 -23 -22z"/>
<path d="M4740 745 c0 -3 2 -5 5 -5 3 0 5 2 5 5 0 3 -2 5 -5 5 -3 0 -5 -2 -5
-5z"/>
<path d="M4650 715 c0 -3 2 -5 5 -5 3 0 5 2 5 5 0 3 -2 5 -5 5 -3 0 -5 -2 -5
-5z"/>
<path d="M1370 695 c0 -3 2 -5 5 -5 3 0 5 2 5 5 0 3 -2 5 -5 5 -3 0 -5 -2 -5
-5z"/>
<path d="M4593 693 c4 -3 10 -3 14 0 3 4 0 7 -7 7 -7 0 -10 -3 -7 -7z"/>
<path d="M1375 670 c3 -5 8 -10 11 -10 3 0 2 5 -1 10 -3 6 -8 10 -11 10 -3 0
-2 -4 1 -10z"/>
<path d="M4569 663 c-13 -16 -12 -17 4 -4 16 13 21 21 13 21 -2 0 -10 -8 -17
-17z"/>
<path d="M4520 640 c0 -7 3 -10 7 -7 3 4 3 10 0 14 -4 3 -7 0 -7 -7z"/>
<path d="M4460 630 c-9 -6 -10 -10 -3 -10 6 0 15 5 18 10 8 12 4 12 -15 0z"/>
<path d="M870 625 c0 -3 2 -5 5 -5 3 0 5 2 5 5 0 3 -2 5 -5 5 -3 0 -5 -2 -5
-5z"/>
<path d="M1310 625 c0 -3 2 -5 5 -5 3 0 5 2 5 5 0 3 -2 5 -5 5 -3 0 -5 -2 -5
-5z"/>
<path d="M4490 625 c0 -3 2 -5 5 -5 3 0 5 2 5 5 0 3 -2 5 -5 5 -3 0 -5 -2 -5
-5z"/>
<path d="M1360 615 c0 -3 2 -5 5 -5 3 0 5 2 5 5 0 3 -2 5 -5 5 -3 0 -5 -2 -5
-5z"/>
<path d="M1410 605 c0 -3 2 -5 5 -5 3 0 5 2 5 5 0 3 -2 5 -5 5 -3 0 -5 -2 -5
-5z"/>
<path d="M4290 605 c0 -3 2 -5 5 -5 3 0 5 2 5 5 0 3 -2 5 -5 5 -3 0 -5 -2 -5
-5z"/>
<path d="M4340 599 c0 -5 5 -7 10 -4 6 3 10 8 10 11 0 2 -4 4 -10 4 -5 0 -10
-5 -10 -11z"/>
<path d="M4390 605 c0 -3 2 -5 5 -5 3 0 5 2 5 5 0 3 -2 5 -5 5 -3 0 -5 -2 -5
-5z"/>
<path d="M4370 595 c0 -3 2 -5 5 -5 3 0 5 2 5 5 0 3 -2 5 -5 5 -3 0 -5 -2 -5
-5z"/>
<path d="M4280 585 c0 -3 2 -5 5 -5 3 0 5 2 5 5 0 3 -2 5 -5 5 -3 0 -5 -2 -5
-5z"/>
<path d="M4320 585 c0 -3 2 -5 5 -5 3 0 5 2 5 5 0 3 -2 5 -5 5 -3 0 -5 -2 -5
-5z"/>
<path d="M4680 575 c0 -3 2 -5 5 -5 3 0 5 2 5 5 0 3 -2 5 -5 5 -3 0 -5 -2 -5
-5z"/>
<path d="M5550 575 c0 -3 2 -5 5 -5 3 0 5 2 5 5 0 3 -2 5 -5 5 -3 0 -5 -2 -5
-5z"/>
<path d="M4250 565 c0 -3 2 -5 5 -5 3 0 5 2 5 5 0 3 -2 5 -5 5 -3 0 -5 -2 -5
-5z"/>
<path d="M4270 565 c0 -3 2 -5 5 -5 3 0 5 2 5 5 0 3 -2 5 -5 5 -3 0 -5 -2 -5
-5z"/>
<path d="M4230 550 c0 -7 3 -10 7 -7 3 4 3 10 0 14 -4 3 -7 0 -7 -7z"/>
<path d="M5750 555 c0 -3 2 -5 5 -5 3 0 5 2 5 5 0 3 -2 5 -5 5 -3 0 -5 -2 -5
-5z"/>
<path d="M1440 545 c0 -3 2 -5 5 -5 3 0 5 2 5 5 0 3 -2 5 -5 5 -3 0 -5 -2 -5
-5z"/>
<path d="M5960 535 c0 -3 2 -5 5 -5 3 0 5 2 5 5 0 3 -2 5 -5 5 -3 0 -5 -2 -5
-5z"/>
<path d="M5710 525 c0 -3 2 -5 5 -5 3 0 5 2 5 5 0 3 -2 5 -5 5 -3 0 -5 -2 -5
-5z"/>
<path d="M4700 515 c0 -3 2 -5 5 -5 3 0 5 2 5 5 0 3 -2 5 -5 5 -3 0 -5 -2 -5
-5z"/>
<path d="M5900 515 c0 -3 2 -5 5 -5 3 0 5 2 5 5 0 3 -2 5 -5 5 -3 0 -5 -2 -5
-5z"/>
<path d="M5770 505 c0 -3 2 -5 5 -5 3 0 5 2 5 5 0 3 -2 5 -5 5 -3 0 -5 -2 -5
-5z"/>
<path d="M3030 495 c0 -3 2 -5 5 -5 3 0 5 2 5 5 0 3 -2 5 -5 5 -3 0 -5 -2 -5
-5z"/>
<path d="M3000 485 c0 -3 2 -5 5 -5 3 0 5 2 5 5 0 3 -2 5 -5 5 -3 0 -5 -2 -5
-5z"/>
<path d="M3070 480 c0 -7 3 -10 7 -7 3 4 3 10 0 14 -4 3 -7 0 -7 -7z"/>
<path d="M4140 485 c0 -3 2 -5 5 -5 3 0 5 2 5 5 0 3 -2 5 -5 5 -3 0 -5 -2 -5
-5z"/>
<path d="M5784 480 c-5 -5 -23 -11 -39 -12 -17 -1 -36 -6 -44 -12 -12 -9 -13
-7 -8 6 4 12 2 15 -9 11 -8 -3 -13 -12 -10 -19 3 -8 -4 -18 -15 -24 -11 -6
-16 -16 -13 -22 4 -6 3 -8 -3 -5 -6 4 -18 -2 -28 -13 -10 -11 -23 -17 -29 -13
-6 4 -5 -1 3 -10 9 -12 10 -17 2 -17 -7 0 -9 -5 -5 -12 4 -7 3 -8 -5 -4 -6 4
-14 0 -17 -8 -3 -9 -14 -16 -23 -17 -10 0 -11 -2 -3 -6 6 -2 12 -9 12 -14 0
-6 -4 -7 -10 -4 -6 4 -7 -1 -3 -11 5 -13 3 -16 -10 -11 -18 7 -21 -1 -11 -27
3 -9 14 -16 23 -16 14 0 14 -2 1 -11 -12 -9 -11 -10 8 -6 12 3 20 1 16 -4 -3
-5 0 -9 6 -9 6 0 8 -10 4 -25 -4 -18 -1 -27 10 -31 9 -3 16 -14 16 -23 0 -14
2 -14 10 -1 8 13 10 13 10 -2 0 -9 5 -20 12 -24 7 -5 8 -2 3 7 -5 8 -5 11 -1
7 4 -3 16 -21 26 -40 13 -24 24 -33 43 -33 14 1 25 -4 24 -9 -1 -6 17 -11 40
-11 36 -1 41 1 30 14 -10 12 -9 13 1 7 8 -5 19 -1 28 10 9 11 13 13 9 7 -3 -7
-1 -13 4 -13 6 0 11 7 11 15 0 8 10 25 23 38 12 12 22 27 22 32 0 6 13 10 28
9 16 0 26 4 23 11 -2 6 5 12 15 12 10 1 19 -2 19 -8 0 -5 5 -9 10 -9 7 0 10
38 8 107 -3 103 -4 106 -27 110 -32 5 -75 39 -59 47 7 4 3 4 -9 2 -19 -3 -21
-1 -14 13 5 9 6 23 1 30 -6 11 -11 9 -19 -8 -7 -12 -17 -18 -23 -15 -7 5 -6
11 5 19 14 10 14 13 -3 27 -16 14 -19 15 -24 2 -3 -9 -11 -12 -18 -8 -9 6 -9
9 0 12 7 2 12 8 12 13 0 12 -23 12 -36 -1z m56 -35 c0 -3 -2 -5 -5 -5 -3 0 -5
2 -5 5 0 3 2 5 5 5 3 0 5 -2 5 -5z m-65 -126 c9 -17 32 -40 51 -51 42 -25 42
-29 2 -49 -18 -8 -39 -29 -47 -47 -20 -39 -27 -40 -46 -1 -9 17 -32 40 -51 51
-32 19 -38 38 -10 38 15 0 61 48 69 73 9 24 14 22 32 -14z m175 16 c0 -3 -2
-5 -5 -5 -3 0 -5 2 -5 5 0 3 2 5 5 5 3 0 5 -2 5 -5z m40 0 c0 -3 -2 -5 -5 -5
-3 0 -5 2 -5 5 0 3 2 5 5 5 3 0 5 -2 5 -5z m-15 -15 c3 -5 4 -10 1 -10 -3 0
-8 5 -11 10 -3 6 -4 10 -1 10 3 0 8 -4 11 -10z m15 -155 c0 -3 -2 -5 -5 -5 -3
0 -5 2 -5 5 0 3 2 5 5 5 3 0 5 -2 5 -5z m-400 -20 c0 -3 -2 -5 -5 -5 -3 0 -5
2 -5 5 0 3 2 5 5 5 3 0 5 -2 5 -5z m77 -72 c-4 -3 -7 0 -7 7 0 7 3 10 7 7 3
-4 3 -10 0 -14z m30 -40 c-4 -3 -10 -3 -14 0 -3 4 0 7 7 7 7 0 10 -3 7 -7z"/>
<path d="M5850 485 c0 -3 2 -5 5 -5 3 0 5 2 5 5 0 3 -2 5 -5 5 -3 0 -5 -2 -5
-5z"/>
<path d="M1500 475 c0 -3 2 -5 5 -5 3 0 5 2 5 5 0 3 -2 5 -5 5 -3 0 -5 -2 -5
-5z"/>
<path d="M2970 470 c0 -7 3 -10 7 -7 3 4 3 10 0 14 -4 3 -7 0 -7 -7z"/>
<path d="M3043 473 c4 -3 10 -3 14 0 3 4 0 7 -7 7 -7 0 -10 -3 -7 -7z"/>
<path d="M5650 475 c0 -3 2 -5 5 -5 3 0 5 2 5 5 0 3 -2 5 -5 5 -3 0 -5 -2 -5
-5z"/>
<path d="M3463 453 c4 -3 10 -3 14 0 3 4 0 7 -7 7 -7 0 -10 -3 -7 -7z"/>
<path d="M5640 445 c0 -3 2 -5 5 -5 3 0 5 2 5 5 0 3 -2 5 -5 5 -3 0 -5 -2 -5
-5z"/>
<path d="M5910 440 c0 -7 3 -10 7 -7 3 4 3 10 0 14 -4 3 -7 0 -7 -7z"/>
<path d="M2910 435 c0 -3 2 -5 5 -5 3 0 5 2 5 5 0 3 -2 5 -5 5 -3 0 -5 -2 -5
-5z"/>
<path d="M4054 428 c-4 -7 -3 -8 4 -4 7 4 12 9 12 12 0 8 -9 4 -16 -8z"/>
<path d="M1550 420 c0 -7 3 -10 7 -7 3 4 3 10 0 14 -4 3 -7 0 -7 -7z"/>
<path d="M1570 425 c0 -3 2 -5 5 -5 3 0 5 2 5 5 0 3 -2 5 -5 5 -3 0 -5 -2 -5
-5z"/>
<path d="M1590 425 c0 -3 2 -5 5 -5 3 0 5 2 5 5 0 3 -2 5 -5 5 -3 0 -5 -2 -5
-5z"/>
<path d="M3370 425 c0 -3 2 -5 5 -5 3 0 5 2 5 5 0 3 -2 5 -5 5 -3 0 -5 -2 -5
-5z"/>
<path d="M3480 425 c0 -3 2 -5 5 -5 3 0 5 2 5 5 0 3 -2 5 -5 5 -3 0 -5 -2 -5
-5z"/>
<path d="M3560 420 c0 -7 3 -10 7 -7 3 4 3 10 0 14 -4 3 -7 0 -7 -7z"/>
<path d="M3635 420 c3 -5 8 -10 11 -10 3 0 2 5 -1 10 -3 6 -8 10 -11 10 -3 0
-2 -4 1 -10z"/>
<path d="M3675 420 c3 -5 8 -10 11 -10 3 0 2 5 -1 10 -3 6 -8 10 -11 10 -3 0
-2 -4 1 -10z"/>
<path d="M3730 420 c0 -7 3 -10 7 -7 3 4 3 10 0 14 -4 3 -7 0 -7 -7z"/>
<path d="M5617 423 c-4 -3 -7 -11 -7 -17 0 -6 5 -5 12 2 6 6 9 14 7 17 -3 3
-9 2 -12 -2z"/>
<path d="M5850 425 c0 -3 2 -5 5 -5 3 0 5 2 5 5 0 3 -2 5 -5 5 -3 0 -5 -2 -5
-5z"/>
<path d="M5980 420 c0 -7 3 -10 7 -7 3 4 3 10 0 14 -4 3 -7 0 -7 -7z"/>
<path d="M1660 415 c0 -3 2 -5 5 -5 3 0 5 2 5 5 0 3 -2 5 -5 5 -3 0 -5 -2 -5
-5z"/>
<path d="M1710 415 c0 -3 2 -5 5 -5 3 0 5 2 5 5 0 3 -2 5 -5 5 -3 0 -5 -2 -5
-5z"/>
<path d="M3240 415 c0 -3 2 -5 5 -5 3 0 5 2 5 5 0 3 -2 5 -5 5 -3 0 -5 -2 -5
-5z"/>
<path d="M3280 415 c0 -3 2 -5 5 -5 3 0 5 2 5 5 0 3 -2 5 -5 5 -3 0 -5 -2 -5
-5z"/>
<path d="M3320 415 c0 -3 2 -5 5 -5 3 0 5 2 5 5 0 3 -2 5 -5 5 -3 0 -5 -2 -5
-5z"/>
<path d="M3420 415 c0 -3 2 -5 5 -5 3 0 5 2 5 5 0 3 -2 5 -5 5 -3 0 -5 -2 -5
-5z"/>
<path d="M3450 415 c0 -3 2 -5 5 -5 3 0 5 2 5 5 0 3 -2 5 -5 5 -3 0 -5 -2 -5
-5z"/>
<path d="M3600 415 c0 -3 2 -5 5 -5 3 0 5 2 5 5 0 3 -2 5 -5 5 -3 0 -5 -2 -5
-5z"/>
<path d="M3820 415 c0 -3 2 -5 5 -5 3 0 5 2 5 5 0 3 -2 5 -5 5 -3 0 -5 -2 -5
-5z"/>
<path d="M3860 415 c0 -3 2 -5 5 -5 3 0 5 2 5 5 0 3 -2 5 -5 5 -3 0 -5 -2 -5
-5z"/>
<path d="M3900 415 c0 -3 2 -5 5 -5 3 0 5 2 5 5 0 3 -2 5 -5 5 -3 0 -5 -2 -5
-5z"/>
<path d="M5580 415 c0 -3 2 -5 5 -5 3 0 5 2 5 5 0 3 -2 5 -5 5 -3 0 -5 -2 -5
-5z"/>
<path d="M1835 400 c3 -5 8 -10 11 -10 3 0 2 5 -1 10 -3 6 -8 10 -11 10 -3 0
-2 -4 1 -10z"/>
<path d="M2470 405 c0 -3 2 -5 5 -5 3 0 5 2 5 5 0 3 -2 5 -5 5 -3 0 -5 -2 -5
-5z"/>
<path d="M2830 405 c0 -3 2 -5 5 -5 3 0 5 2 5 5 0 3 -2 5 -5 5 -3 0 -5 -2 -5
-5z"/>
<path d="M2870 405 c0 -3 2 -5 5 -5 3 0 5 2 5 5 0 3 -2 5 -5 5 -3 0 -5 -2 -5
-5z"/>
<path d="M3400 405 c0 -3 2 -5 5 -5 3 0 5 2 5 5 0 3 -2 5 -5 5 -3 0 -5 -2 -5
-5z"/>
<path d="M2810 395 c0 -3 2 -5 5 -5 3 0 5 2 5 5 0 3 -2 5 -5 5 -3 0 -5 -2 -5
-5z"/>
<path d="M3820 395 c0 -3 2 -5 5 -5 3 0 5 2 5 5 0 3 -2 5 -5 5 -3 0 -5 -2 -5
-5z"/>
<path d="M3860 395 c0 -3 2 -5 5 -5 3 0 5 2 5 5 0 3 -2 5 -5 5 -3 0 -5 -2 -5
-5z"/>
<path d="M5980 386 c0 -9 5 -16 10 -16 6 0 10 4 10 9 0 6 -4 13 -10 16 -5 3
-10 -1 -10 -9z"/>
<path d="M1870 385 c0 -3 2 -5 5 -5 3 0 5 2 5 5 0 3 -2 5 -5 5 -3 0 -5 -2 -5
-5z"/>
<path d="M2650 385 c0 -3 2 -5 5 -5 3 0 5 2 5 5 0 3 -2 5 -5 5 -3 0 -5 -2 -5
-5z"/>
<path d="M2700 385 c0 -3 2 -5 5 -5 3 0 5 2 5 5 0 3 -2 5 -5 5 -3 0 -5 -2 -5
-5z"/>
<path d="M1960 375 c0 -3 2 -5 5 -5 3 0 5 2 5 5 0 3 -2 5 -5 5 -3 0 -5 -2 -5
-5z"/>
<path d="M2470 375 c0 -3 2 -5 5 -5 3 0 5 2 5 5 0 3 -2 5 -5 5 -3 0 -5 -2 -5
-5z"/>
<path d="M2763 373 c4 -3 10 -3 14 0 3 4 0 7 -7 7 -7 0 -10 -3 -7 -7z"/>
<path d="M3080 365 c0 -3 2 -5 5 -5 3 0 5 2 5 5 0 3 -2 5 -5 5 -3 0 -5 -2 -5
-5z"/>
<path d="M5940 365 c0 -3 2 -5 5 -5 3 0 5 2 5 5 0 3 -2 5 -5 5 -3 0 -5 -2 -5
-5z"/>
<path d="M2330 355 c0 -3 2 -5 5 -5 3 0 5 2 5 5 0 3 -2 5 -5 5 -3 0 -5 -2 -5
-5z"/>
<path d="M2380 355 c0 -3 2 -5 5 -5 3 0 5 2 5 5 0 3 -2 5 -5 5 -3 0 -5 -2 -5
-5z"/>
<path d="M2130 325 c0 -3 2 -5 5 -5 3 0 5 2 5 5 0 3 -2 5 -5 5 -3 0 -5 -2 -5
-5z"/>
<path d="M5540 325 c0 -3 2 -5 5 -5 3 0 5 2 5 5 0 3 -2 5 -5 5 -3 0 -5 -2 -5
-5z"/>
<path d="M2310 315 c0 -3 2 -5 5 -5 3 0 5 2 5 5 0 3 -2 5 -5 5 -3 0 -5 -2 -5
-5z"/>
<path d="M2260 305 c0 -3 2 -5 5 -5 3 0 5 2 5 5 0 3 -2 5 -5 5 -3 0 -5 -2 -5
-5z"/>
<path d="M2300 295 c0 -3 2 -5 5 -5 3 0 5 2 5 5 0 3 -2 5 -5 5 -3 0 -5 -2 -5
-5z"/>
<path d="M5510 290 c0 -7 3 -10 7 -7 3 4 3 10 0 14 -4 3 -7 0 -7 -7z"/>
<path d="M2220 285 c0 -3 2 -5 5 -5 3 0 5 2 5 5 0 3 -2 5 -5 5 -3 0 -5 -2 -5
-5z"/>
<path d="M2560 285 c0 -3 2 -5 5 -5 3 0 5 2 5 5 0 3 -2 5 -5 5 -3 0 -5 -2 -5
-5z"/>
<path d="M5490 275 c0 -3 2 -5 5 -5 3 0 5 2 5 5 0 3 -2 5 -5 5 -3 0 -5 -2 -5
-5z"/>
<path d="M3760 245 c0 -3 2 -5 5 -5 3 0 5 2 5 5 0 3 -2 5 -5 5 -3 0 -5 -2 -5
-5z"/>
<path d="M5500 215 c0 -3 2 -5 5 -5 3 0 5 2 5 5 0 3 -2 5 -5 5 -3 0 -5 -2 -5
-5z"/>
<path d="M5440 175 c0 -3 2 -5 5 -5 3 0 5 2 5 5 0 3 -2 5 -5 5 -3 0 -5 -2 -5
-5z"/>
<path d="M5554 168 c-4 -7 -3 -8 4 -4 7 4 12 9 12 12 0 8 -9 4 -16 -8z"/>
<path d="M5960 125 c0 -3 2 -5 5 -5 3 0 5 2 5 5 0 3 -2 5 -5 5 -3 0 -5 -2 -5
-5z"/>
<path d="M5910 95 c0 -3 2 -5 5 -5 3 0 5 2 5 5 0 3 -2 5 -5 5 -3 0 -5 -2 -5
-5z"/>
<path d="M5940 85 c0 -3 2 -5 5 -5 3 0 5 2 5 5 0 3 -2 5 -5 5 -3 0 -5 -2 -5
-5z"/>
<path d="M5970 85 c0 -3 2 -5 5 -5 3 0 5 2 5 5 0 3 -2 5 -5 5 -3 0 -5 -2 -5
-5z"/>
<path d="M5875 70 c-3 -5 -1 -10 4 -10 6 0 11 5 11 10 0 6 -2 10 -4 10 -3 0
-8 -4 -11 -10z"/>
<path d="M5920 65 c0 -3 2 -5 5 -5 3 0 5 2 5 5 0 3 -2 5 -5 5 -3 0 -5 -2 -5
-5z"/>
<path d="M5580 55 c0 -3 2 -5 5 -5 3 0 5 2 5 5 0 3 -2 5 -5 5 -3 0 -5 -2 -5
-5z"/>
<path d="M5640 45 c0 -3 2 -5 5 -5 3 0 5 2 5 5 0 3 -2 5 -5 5 -3 0 -5 -2 -5
-5z"/>
</g>
</svg>
