<?xml version="1.0" encoding="UTF-8"?>
<svg xmlns="http://www.w3.org/2000/svg" viewBox="0 0 512 512" role="img" aria-label="Vezor symbol">
  <title>Vezor Symbol</title>
  <desc>Clean in-product symbol mark for the Vezor platform.</desc>
  <defs>
    <linearGradient id="arc" x1="12%" y1="8%" x2="88%" y2="88%">
      <stop offset="0%" stop-color="#4ed4ff"/>
      <stop offset="55%" stop-color="#64b4ff"/>
      <stop offset="100%" stop-color="#a37cff"/>
    </linearGradient>
    <radialGradient id="iris" cx="50%" cy="44%" r="56%">
      <stop offset="0%" stop-color="#dff6ff"/>
      <stop offset="34%" stop-color="#5fd2ff"/>
      <stop offset="74%" stop-color="#3f93ff"/>
      <stop offset="100%" stop-color="#936dff"/>
    </radialGradient>
    <filter id="subtleGlow" x="-22%" y="-22%" width="144%" height="144%">
      <feGaussianBlur stdDeviation="7" result="blur"/>
      <feColorMatrix
        in="blur"
        type="matrix"
        values="1 0 0 0 0
                0 1 0 0 0
                0 0 1 0 0
                0 0 0 0.16 0"
      />
    </filter>
  </defs>

  <g transform="translate(256 256)">
    <circle
      cx="0"
      cy="0"
      r="170"
      fill="none"
      stroke="url(#arc)"
      stroke-width="18"
      stroke-linecap="round"
      stroke-dasharray="184 64 122 64 184 64 122 64"
      opacity="0.82"
      filter="url(#subtleGlow)"
    />

    <path
      d="M-124 0c28-49 80-82 124-82s96 33 124 82c-28 49-80 82-124 82S-96 49-124 0Z"
      fill="none"
      stroke="url(#arc)"
      stroke-width="18"
      stroke-linecap="round"
      stroke-linejoin="round"
    />

    <path
      d="M-34-208h28l-14 125-30 291h-28l44-291 0.1-125Z"
      fill="url(#arc)"
      opacity="0.96"
    />
    <path
      d="M172-130 192-110 62 17l-141 129-20-21L31-1 172-130Z"
      fill="url(#arc)"
      opacity="0.92"
    />

    <circle cx="0" cy="0" r="55" fill="url(#iris)"/>
    <circle cx="0" cy="0" r="22" fill="#08111b"/>
    <circle cx="-12" cy="-16" r="8" fill="#f8fcff" opacity="0.86"/>
  </g>
</svg>
