<?xml version="1.0" encoding="UTF-8"?>
<svg xmlns="http://www.w3.org/2000/svg" viewBox="0 0 512 512" role="img" aria-label="Vezor symbol">
  <title>Vezor symbol</title>
  <desc>Approved eye-and-radar symbol for the Vezor platform, rebuilt as a crisp product SVG.</desc>
  <defs>
    <linearGradient id="ringGradient" x1="14%" y1="10%" x2="86%" y2="88%">
      <stop offset="0%" stop-color="#54d7ff"/>
      <stop offset="52%" stop-color="#5fb6ff"/>
      <stop offset="100%" stop-color="#a584ff"/>
    </linearGradient>
    <radialGradient id="coreGradient" cx="50%" cy="46%" r="56%">
      <stop offset="0%" stop-color="#baf1ff"/>
      <stop offset="38%" stop-color="#56d0ff"/>
      <stop offset="74%" stop-color="#3298ff"/>
      <stop offset="100%" stop-color="#8d72ff"/>
    </radialGradient>
    <filter id="symbolGlow" x="-24%" y="-24%" width="148%" height="148%">
      <feGaussianBlur stdDeviation="8" result="blur"/>
      <feColorMatrix
        in="blur"
        type="matrix"
        values="1 0 0 0 0
                0 1 0 0 0
                0 0 1 0 0
                0 0 0 0.14 0"
      />
    </filter>
  </defs>

  <g id="vezor-symbol-mark" transform="translate(256 256)">
    <g id="symbol-ring" filter="url(#symbolGlow)">
      <circle
        cx="0"
        cy="0"
        r="162"
        fill="none"
        stroke="url(#ringGradient)"
        stroke-width="16"
        stroke-linecap="round"
        stroke-dasharray="94 24 58 24 94 24 58 24 94 24 58 24 94 24 58 24"
        opacity="0.86"
      />
    </g>

    <g id="symbol-eye">
      <path
        d="M-146 0c34-54 92-90 146-90s112 36 146 90c-34 54-92 90-146 90S-112 54-146 0Z"
        fill="none"
        stroke="url(#ringGradient)"
        stroke-width="16"
        stroke-linecap="round"
        stroke-linejoin="round"
      />
    </g>

    <g id="symbol-blades" fill="url(#ringGradient)">
      <path d="M-32-210h22L1-116l-26 324h-22l15-324Z" opacity="0.98" />
      <path d="M146-132 164-114 46 10l-116 108-18-18L28-24 146-132Z" opacity="0.94" />
      <path d="M-166-118l18-18 118 112 116 124-18 18L-50 10-166-118Z" opacity="0.88" />
      <path d="M12-10c44 6 84 36 104 82l-28 11C72 47 42 25 7 21L12-10Z" opacity="0.9" />
    </g>

    <g id="symbol-core">
      <circle cx="18" cy="6" r="72" fill="url(#coreGradient)" />
      <circle cx="18" cy="6" r="33" fill="#0a111a" />
      <circle cx="2" cy="-14" r="11" fill="#effbff" opacity="0.9" />
    </g>
  </g>
</svg>
